<svg width="100" height="100" viewBox="0 0 100 100" fill="none" xmlns="http://www.w3.org/2000/svg">
<path d="M35 15C33.6739 15 32.4022 15.5268 31.4645 16.4645C30.5268 17.4021 30 18.6739 30 20C30 21.3261 30.5268 22.5978 31.4645 23.5355C32.4022 24.4732 33.6739 25 35 25H65C66.326 25 67.598 24.4732 68.5355 23.5355C69.473 22.5978 70 21.3261 70 20C70 18.6739 69.473 17.4021 68.5355 16.4645C67.598 15.5268 66.326 15 65 15H35ZM20 35C20 33.6739 20.5268 32.4022 21.4645 31.4645C22.4022 30.5268 23.6739 30 25 30H75C76.326 30 77.598 30.5268 78.5355 31.4645C79.473 32.4022 80 33.6739 80 35C80 36.3261 79.473 37.5978 78.5355 38.5355C77.598 39.4732 76.326 40 75 40H25C23.6739 40 22.4022 39.4732 21.4645 38.5355C20.5268 37.5978 20 36.3261 20 35ZM10 55C10 52.3478 11.0536 49.8043 12.929 47.929C14.8043 46.0536 17.3478 45 20 45H80C82.652 45 85.1955 46.0536 87.071 47.929C88.9465 49.8043 90 52.3478 90 55V75C90 77.652 88.9465 80.1955 87.071 82.071C85.1955 83.9465 82.652 85 80 85H20C17.3478 85 14.8043 83.9465 12.929 82.071C11.0536 80.1955 10 77.652 10 75V55Z"/>
</svg>
