<svg width="100" height="100" viewBox="0 0 100 100" fill="none" xmlns="http://www.w3.org/2000/svg">
<path d="M55.5904 20.9314C53.29 16.3394 46.7366 16.3384 44.4348 20.9294L18.1663 73.3218C16.0862 77.4703 19.1025 82.357 23.7435 82.357H76.2567C80.8965 82.357 83.9128 77.4723 81.835 73.324L55.5904 20.9314ZM37.7421 17.5738C42.8063 7.47321 57.2237 7.47608 62.2843 17.5783L88.5288 69.9709C93.1002 79.0972 86.4646 89.8438 76.2567 89.8438H23.7435C13.5334 89.8438 6.89743 79.0932 11.4736 69.9662L37.7421 17.5738ZM49.9967 34.9409C52.7532 34.9409 54.9878 37.1755 54.9878 39.9321V49.9144C54.9878 52.671 52.7532 54.9056 49.9967 54.9056C47.2401 54.9056 45.0055 52.671 45.0055 49.9144V39.9321C45.0055 37.1755 47.2401 34.9409 49.9967 34.9409ZM54.9878 69.8791C54.9878 72.6357 52.7533 74.8703 49.9967 74.8703C47.24 74.8703 45.0055 72.6357 45.0055 69.8791C45.0055 67.1225 47.24 64.8879 49.9967 64.8879C52.7533 64.8879 54.9878 67.1225 54.9878 69.8791Z" />
</svg>
