<svg width="100" height="100" viewBox="0 0 100 100" fill="none" xmlns="http://www.w3.org/2000/svg">
<path fill-rule="evenodd" clip-rule="evenodd" d="M10 15.7143C10 12.5584 12.5584 10 15.7143 10H38.5714C41.7273 10 44.2857 12.5584 44.2857 15.7143C44.2857 18.8702 41.7273 21.4286 38.5714 21.4286H29.5098L42.612 34.5308C44.8436 36.7624 44.8436 40.3805 42.612 42.612C40.3805 44.8436 36.7624 44.8436 34.5308 42.612L21.4286 29.5098V38.5714C21.4286 41.7273 18.8702 44.2857 15.7143 44.2857C12.5584 44.2857 10 41.7273 10 38.5714V15.7143ZM61.4286 21.4286C58.2727 21.4286 55.7143 18.8702 55.7143 15.7143C55.7143 12.5584 58.2727 10 61.4286 10H84.2857C87.4416 10 90 12.5584 90 15.7143V38.5714C90 41.7273 87.4416 44.2857 84.2857 44.2857C81.1298 44.2857 78.5714 41.7273 78.5714 38.5714V29.5098L65.4692 42.612C63.2376 44.8436 59.6195 44.8436 57.388 42.612C55.1564 40.3805 55.1564 36.7624 57.388 34.5308L70.4902 21.4286H61.4286ZM10 61.4286C10 58.2727 12.5584 55.7143 15.7143 55.7143C18.8702 55.7143 21.4286 58.2727 21.4286 61.4286V70.4902L34.5308 57.388C36.7624 55.1564 40.3805 55.1564 42.612 57.388C44.8436 59.6195 44.8436 63.2376 42.612 65.4692L29.5098 78.5714H38.5714C41.7273 78.5714 44.2857 81.1298 44.2857 84.2857C44.2857 87.4416 41.7273 90 38.5714 90H15.7143C12.5584 90 10 87.4416 10 84.2857V61.4286ZM84.2857 55.7143C87.4416 55.7143 90 58.2727 90 61.4286V84.2857C90 87.4416 87.4416 90 84.2857 90H61.4286C58.2727 90 55.7143 87.4416 55.7143 84.2857C55.7143 81.1298 58.2727 78.5714 61.4286 78.5714H70.4902L57.388 65.4692C55.1564 63.2376 55.1564 59.6195 57.388 57.388C59.6195 55.1564 63.2376 55.1564 65.4692 57.388L78.5714 70.4902V61.4286C78.5714 58.2727 81.1298 55.7143 84.2857 55.7143Z" fill="black"/>
</svg>
