<svg width="100" height="100" viewBox="0 0 100 100" fill="none" xmlns="http://www.w3.org/2000/svg">
<path fill-rule="evenodd" clip-rule="evenodd" d="M50.2606 10C51.2645 10 52.2275 10.3988 52.9375 11.1087C53.6474 11.8186 54.0458 12.7815 54.0458 13.7854V18.7935L69.0135 24.782L75.0663 21.7537C75.9648 21.3049 77.0048 21.2315 77.9574 21.5495C78.9101 21.8675 79.6974 22.551 80.1465 23.4495C80.5951 24.3481 80.6686 25.3881 80.3507 26.3408C80.0327 27.2934 79.3492 28.0808 78.4506 28.5295L73.7831 30.8613L80.3619 51.3781C80.5852 52.0742 80.602 52.82 80.4104 53.5252C80.2192 54.2303 79.8276 54.8654 79.2834 55.353C76.509 57.8401 72.9136 59.2141 69.1874 59.2102C65.4617 59.2141 61.8662 57.8401 59.0919 55.353C58.5476 54.8654 58.1561 54.2303 57.9649 53.5252C57.7732 52.82 57.7901 52.0742 58.0129 51.3781L64.5052 31.1301L54.0458 26.9473V62.9956H61.6166C62.6207 62.9956 63.5837 63.3945 64.2937 64.1044C65.0036 64.8143 65.402 65.7769 65.402 66.781C65.402 67.7851 65.0036 68.7477 64.2937 69.4576C63.5837 70.1675 62.6207 70.5664 61.6166 70.5664H38.9044C37.9005 70.5664 36.9376 70.1675 36.2277 69.4576C35.5179 68.7477 35.119 67.7851 35.119 66.781C35.119 65.7769 35.5179 64.8143 36.2277 64.1044C36.9376 63.3945 37.9005 62.9956 38.9044 62.9956H46.4752V26.9473L36.0162 31.1301L42.5081 51.3781C42.7312 52.0742 42.748 52.82 42.5565 53.5252C42.3651 54.2303 41.9736 54.8654 41.4293 55.353C38.6552 57.8401 35.0595 59.2141 31.3336 59.2102C27.6078 59.2141 24.0121 57.8401 21.238 55.353C20.6936 54.8654 20.3022 54.2303 20.1107 53.5252C19.9192 52.82 19.9361 52.0742 20.1591 51.3781L26.7382 30.8613L22.0707 28.5257C21.2049 28.0588 20.5548 27.2732 20.2582 26.3353C19.9616 25.3974 20.0418 24.3809 20.4817 23.501C20.9216 22.6212 21.6867 21.9472 22.6151 21.6217C23.5434 21.2962 24.5619 21.345 25.4549 21.7575L31.5078 24.782L46.4752 18.7935V13.7854C46.4752 12.7815 46.8741 11.8186 47.5839 11.1087C48.2938 10.3988 49.2567 10 50.2606 10ZM31.3336 41.3204L28.2372 50.9805C29.1835 51.4049 30.2283 51.6394 31.3336 51.6394C32.439 51.6394 33.4875 51.4049 34.4301 50.9805L31.3336 41.3204ZM69.1874 41.3204L66.0912 50.9805C67.0373 51.4049 68.0821 51.6394 69.1874 51.6394C70.2928 51.6394 71.3414 51.4049 72.2841 50.9805L69.1874 41.3204Z" fill="black"/>
<path d="M50.1242 90C51.4808 89.9381 52.8933 89.9213 54.2967 89.7967C56.2288 89.6249 58.1604 89.419 60.08 89.1391C63.6058 88.6273 67.0538 87.769 70.4364 86.6537C75.3946 85.0245 80.092 82.8571 84.3866 79.8659C84.7945 79.5813 85.2168 79.2992 85.5607 78.9462C86.1841 78.3038 85.9349 77.3741 85.0978 77.0721C84.6591 76.9133 84.2416 77.0089 83.8259 77.1837C81.2172 78.2808 78.554 79.2438 75.8471 80.0697C71.1961 81.4857 66.468 82.5551 61.6378 83.1244C59.3242 83.3965 57.001 83.6237 54.6766 83.7517C52.7852 83.8564 50.8799 83.8512 48.9868 83.7738C46.4883 83.6704 43.9891 83.5112 41.5016 83.262C39.4286 83.0535 37.3621 82.7342 35.3102 82.3665C31.8122 81.7297 28.3586 80.8696 24.9706 79.7911C19.2731 78.004 13.7822 75.615 8.59082 72.665C8.32986 72.5188 8.0499 72.3505 7.76262 72.3142C7.54845 72.2865 7.22828 72.3916 7.10474 72.553C6.98121 72.7148 6.97682 73.0362 7.04042 73.2525C7.0989 73.4537 7.29626 73.6319 7.4673 73.7803C8.27138 74.482 9.08204 75.1868 9.91316 75.8616C14.29 79.416 19.1292 82.36 24.2981 84.6126C28.8878 86.6191 33.6421 88.1004 38.5857 88.9219C40.7736 89.2875 42.9796 89.5579 45.1865 89.772C46.8056 89.9342 48.44 89.9299 50.1242 90ZM87.5555 70.5699C87.5516 70.5379 84.8378 70.7278 83.5014 70.9558C81.5447 71.2906 79.7005 71.9655 78.0505 73.0998C77.8052 73.2742 77.5997 73.4983 77.4474 73.7578C77.2769 74.0459 77.4677 74.3427 77.8078 74.3856C77.9293 74.4003 78.0517 74.4003 78.1733 74.3856C79.3552 74.2649 80.535 74.0931 81.7208 74.0273C83.3448 73.9382 84.9736 73.8811 86.5985 73.9105C87.2738 73.9214 87.9565 74.1416 88.6154 74.3358C88.8598 74.402 89.0779 74.5426 89.2397 74.7377C89.401 74.9332 89.4979 75.1738 89.5165 75.4264C89.5654 75.9075 89.6173 76.4132 89.5217 76.8774C89.2613 78.1333 88.9939 79.3966 88.5985 80.6144C88.056 82.286 87.3911 83.9183 86.782 85.5687C86.6842 85.8343 86.5804 86.1376 86.836 86.3474C87.0917 86.5572 87.4032 86.4417 87.6468 86.2682C87.915 86.0796 88.1659 85.8663 88.3952 85.6319C91.7402 82.1627 93.3175 77.9564 93.5174 73.1993C93.5749 71.8206 93.2466 71.4546 91.9171 71.0868C90.4917 70.6936 89.0298 70.5664 87.5555 70.5699Z" fill="black"/>
</svg>
