<svg width="100" height="100" viewBox="0 0 100 100" fill="none" xmlns="http://www.w3.org/2000/svg">
<path fill-rule="evenodd" clip-rule="evenodd" d="M49.9989 13C50.9271 13 51.8175 13.3688 52.4739 14.0251C53.1303 14.6815 53.4987 15.5718 53.4987 16.5V21.1305L67.3379 26.6675L72.9343 23.8675C73.7651 23.4525 74.7267 23.3847 75.6075 23.6787C76.4883 23.9727 77.2163 24.6047 77.6315 25.4355C78.0463 26.2663 78.1143 27.2279 77.8203 28.1087C77.5263 28.9896 76.8943 29.7175 76.0635 30.1325L71.7479 32.2884L77.8307 51.2583C78.0371 51.9019 78.0527 52.5915 77.8755 53.2435C77.6987 53.8955 77.3367 54.4827 76.8335 54.9335C74.2683 57.2331 70.9439 58.5035 67.4987 58.4999C64.0539 58.5035 60.7295 57.2331 58.1643 54.9335C57.6611 54.4827 57.2991 53.8955 57.1223 53.2435C56.9451 52.5915 56.9607 51.9019 57.1667 51.2583L63.1695 32.537L53.4987 28.6695V61.9999H60.4987C61.4271 61.9999 62.3175 62.3687 62.9739 63.0251C63.6303 63.6815 63.9987 64.5715 63.9987 65.4999C63.9987 66.4283 63.6303 67.3183 62.9739 67.9747C62.3175 68.6311 61.4271 68.9999 60.4987 68.9999H39.499C38.5707 68.9999 37.6804 68.6311 37.0241 67.9747C36.3677 67.3183 35.999 66.4283 35.999 65.4999C35.999 64.5715 36.3677 63.6815 37.0241 63.0251C37.6804 62.3687 38.5707 61.9999 39.499 61.9999H46.4989V28.6695L36.8284 32.537L42.8309 51.2583C43.0372 51.9019 43.0527 52.5915 42.8757 53.2435C42.6987 53.8955 42.3367 54.4827 41.8334 54.9335C39.2685 57.2331 35.9439 58.5035 32.499 58.4999C29.054 58.5035 25.7294 57.2331 23.1645 54.9335C22.6612 54.4827 22.2992 53.8955 22.1222 53.2435C21.9452 52.5915 21.9607 51.9019 22.167 51.2583L28.25 32.2884L23.9345 30.129C23.1339 29.6973 22.5329 28.9709 22.2586 28.1037C21.9844 27.2365 22.0585 26.2966 22.4652 25.4831C22.872 24.6696 23.5794 24.0464 24.4377 23.7455C25.2961 23.4445 26.2378 23.4896 27.0635 23.871L32.66 26.6675L46.4989 21.1305V16.5C46.4989 15.5718 46.8677 14.6815 47.5241 14.0251C48.1804 13.3688 49.0707 13 49.9989 13ZM32.499 41.959L29.636 50.8907C30.511 51.2831 31.477 51.4999 32.499 51.4999C33.521 51.4999 34.4904 51.2831 35.362 50.8907L32.499 41.959ZM67.4987 41.959L64.6359 50.8907C65.5107 51.2831 66.4767 51.4999 67.4987 51.4999C68.5207 51.4999 69.4903 51.2831 70.3619 50.8907L67.4987 41.959Z" fill="black"/>
<path d="M49.8728 86.9683C51.1271 86.9111 52.4331 86.8955 53.7307 86.7803C55.5171 86.6215 57.3031 86.4311 59.0779 86.1723C62.3379 85.6991 65.5259 84.9055 68.6535 83.8743C73.2379 82.3679 77.5811 80.3639 81.5519 77.5983C81.9291 77.3351 82.3195 77.0743 82.6375 76.7479C83.2139 76.1539 82.9835 75.2943 82.2095 75.0151C81.8039 74.8683 81.4179 74.9567 81.0335 75.1183C78.6215 76.1327 76.1591 77.0231 73.6563 77.7867C69.3559 79.0959 64.9843 80.0847 60.5183 80.6111C58.3791 80.8627 56.2311 81.0727 54.0819 81.1911C52.3331 81.2879 50.5715 81.2831 48.8211 81.2115C46.5111 81.1159 44.2003 80.9687 41.9003 80.7383C39.9836 80.5455 38.0729 80.2503 36.1757 79.9103C32.9415 79.3215 29.7482 78.5263 26.6157 77.5291C21.3477 75.8767 16.2708 73.6679 11.4709 70.9403C11.2296 70.8051 10.9707 70.6495 10.7051 70.6159C10.5071 70.5903 10.2111 70.6875 10.0968 70.8367C9.98263 70.9863 9.97857 71.2835 10.0374 71.4835C10.0914 71.6695 10.2739 71.8343 10.4321 71.9715C11.1755 72.6203 11.9251 73.2719 12.6935 73.8959C16.7404 77.1823 21.2147 79.9043 25.9939 81.9871C30.2376 83.8423 34.6334 85.2119 39.2043 85.9715C41.2272 86.3095 43.2669 86.5595 45.3073 86.7575C46.8044 86.9075 48.3156 86.9035 49.8728 86.9683ZM84.4819 69.0031C84.4783 68.9735 81.9691 69.1491 80.7335 69.3599C78.9243 69.6695 77.2191 70.2935 75.6935 71.3423C75.4667 71.5035 75.2767 71.7107 75.1359 71.9507C74.9783 72.2171 75.1547 72.4915 75.4691 72.5311C75.5815 72.5447 75.6947 72.5447 75.8071 72.5311C76.8999 72.4195 77.9907 72.2607 79.0871 72.1999C80.5887 72.1175 82.0947 72.0647 83.5971 72.0919C84.2215 72.1019 84.8527 72.3055 85.4619 72.4851C85.6879 72.5463 85.8895 72.6763 86.0391 72.8567C86.1883 73.0375 86.2779 73.2599 86.2951 73.4935C86.3403 73.9383 86.3883 74.4059 86.2999 74.8351C86.0591 75.9963 85.8119 77.1643 85.4463 78.2903C84.9447 79.8359 84.3299 81.3451 83.7667 82.8711C83.6763 83.1167 83.5803 83.3971 83.8167 83.5911C84.0531 83.7851 84.3411 83.6783 84.5663 83.5179C84.8143 83.3435 85.0463 83.1463 85.2583 82.9295C88.3511 79.7219 89.8095 75.8327 89.9943 71.4343C90.0475 70.1595 89.7439 69.8211 88.5147 69.4811C87.1967 69.1175 85.8451 68.9999 84.4819 69.0031Z" fill="black"/>
</svg>
