<svg width="100" height="100" viewBox="0 0 100 100" fill="none" xmlns="http://www.w3.org/2000/svg">
<path d="M49.9982 10C51.3243 10 52.5961 10.5268 53.5337 11.4645C54.4714 12.4021 54.9982 13.6739 54.9982 15V21.6149L74.768 29.5248L82.763 25.5249C83.9498 24.9321 85.3235 24.8351 86.5819 25.2552C87.8402 25.6753 88.8802 26.578 89.4729 27.7649C90.0657 28.9517 90.1627 30.3254 89.7426 31.5837C89.3225 32.8421 88.4198 33.882 87.2329 34.4748L81.068 37.5548L89.7579 64.6546C90.0525 65.5738 90.0747 66.5587 89.8219 67.4903C89.569 68.4219 89.0519 69.2604 88.3329 69.9045C84.6688 73.1898 79.9194 75.0045 74.998 74.9995C70.0767 75.0045 65.3273 73.1898 61.6631 69.9045C60.9442 69.2604 60.4271 68.4219 60.1742 67.4903C59.9213 66.5587 59.9435 65.5738 60.2382 64.6546L68.8131 37.9098L54.9982 32.3848V79.9994H64.9981C66.3242 79.9994 67.5959 80.5262 68.5336 81.4639C69.4713 82.4016 69.9981 83.6733 69.9981 84.9994C69.9981 86.3255 69.4713 87.5972 68.5336 88.5349C67.5959 89.4726 66.3242 89.9994 64.9981 89.9994H34.9984C33.6723 89.9994 32.4005 89.4726 31.4629 88.5349C30.5252 87.5972 29.9984 86.3255 29.9984 84.9994C29.9984 83.6733 30.5252 82.4016 31.4629 81.4639C32.4005 80.5262 33.6723 79.9994 34.9984 79.9994H44.9983V32.3848L31.1834 37.9098L39.7583 64.6546C40.0529 65.5738 40.0751 66.5587 39.8223 67.4903C39.5694 68.4219 39.0523 69.2604 38.3333 69.9045C34.6692 73.1898 29.9198 75.0045 24.9984 74.9995C20.0771 75.0045 15.3277 73.1898 11.6635 69.9045C10.9446 69.2604 10.4275 68.4219 10.1746 67.4903C9.92173 66.5587 9.94395 65.5738 10.2386 64.6546L18.9285 37.5548L12.7635 34.4698C11.6199 33.8531 10.7613 32.8154 10.3695 31.5766C9.97769 30.3377 10.0835 28.995 10.6646 27.8329C11.2457 26.6707 12.2563 25.7804 13.4825 25.3506C14.7086 24.9207 16.054 24.985 17.2335 25.5299L25.2284 29.5248L44.9983 21.6149V15C44.9983 13.6739 45.5251 12.4021 46.4627 11.4645C47.4004 10.5268 48.6722 10 49.9982 10V10ZM24.9984 51.3697L20.9085 64.1296C22.1585 64.6896 23.5385 64.9996 24.9984 64.9996C26.4584 64.9996 27.8434 64.6896 29.0884 64.1296L24.9984 51.3697ZM74.998 51.3697L70.9081 64.1296C72.1581 64.6896 73.538 64.9996 74.998 64.9996C76.458 64.9996 77.843 64.6896 79.088 64.1296L74.998 51.3697Z" />
</svg>
