<svg width="100" height="100" viewBox="0 0 100 100" fill="none" xmlns="http://www.w3.org/2000/svg">
<path fill-rule="evenodd" clip-rule="evenodd" d="M49.9986 10C51.3246 10 52.5964 10.5268 53.5341 11.4645C54.4718 12.4021 54.9986 13.6739 54.9986 15V21.615L74.7686 29.525L82.7636 25.525C83.9504 24.9322 85.3241 24.8352 86.5825 25.2553C87.8408 25.6754 88.8808 26.5782 89.4736 27.765C90.0663 28.9518 90.1633 30.3256 89.7432 31.5839C89.3232 32.8423 88.4204 33.8822 87.2336 34.475L81.0686 37.555L89.7586 64.655C90.0532 65.5743 90.0754 66.5591 89.8225 67.4908C89.5697 68.4224 89.0525 69.2609 88.3336 69.905C84.6694 73.1904 79.9199 75.005 74.9986 75C70.0772 75.005 65.3277 73.1904 61.6636 69.905C60.9446 69.2609 60.4275 68.4224 60.1746 67.4908C59.9217 66.5591 59.9439 65.5743 60.2386 64.655L68.8136 37.91L54.9986 32.385V80H64.9986C66.3246 80 67.5964 80.5268 68.5341 81.4645C69.4718 82.4021 69.9986 83.6739 69.9986 85C69.9986 86.3261 69.4718 87.5979 68.5341 88.5355C67.5964 89.4732 66.3246 90 64.9986 90H34.9986C33.6725 90 32.4007 89.4732 31.463 88.5355C30.5253 87.5979 29.9986 86.3261 29.9986 85C29.9986 83.6739 30.5253 82.4021 31.463 81.4645C32.4007 80.5268 33.6725 80 34.9986 80H44.9986V32.385L31.1836 37.91L39.7586 64.655C40.0532 65.5743 40.0754 66.5591 39.8225 67.4908C39.5697 68.4224 39.0525 69.2609 38.3336 69.905C34.6694 73.1904 29.9199 75.005 24.9986 75C20.0772 75.005 15.3277 73.1904 11.6636 69.905C10.9446 69.2609 10.4275 68.4224 10.1746 67.4908C9.92173 66.5591 9.94395 65.5743 10.2386 64.655L18.9286 37.555L12.7636 34.47C11.6199 33.8533 10.7613 32.8156 10.3695 31.5768C9.97769 30.3379 10.0835 28.9952 10.6646 27.833C11.2457 26.6709 12.2564 25.7806 13.4825 25.3507C14.7087 24.9208 16.054 24.9851 17.2336 25.53L25.2286 29.525L44.9986 21.615V15C44.9986 13.6739 45.5253 12.4021 46.463 11.4645C47.4007 10.5268 48.6725 10 49.9986 10V10ZM24.9986 51.37L20.9086 64.13C22.1586 64.69 23.5386 65 24.9986 65C26.4586 65 27.8436 64.69 29.0886 64.13L24.9986 51.37ZM74.9986 51.37L70.9086 64.13C72.1586 64.69 73.5386 65 74.9986 65C76.4586 65 77.8436 64.69 79.0886 64.13L74.9986 51.37Z" fill="black"/>
</svg>
