<svg width="100" height="100" viewBox="0 0 100 100" fill="none" xmlns="http://www.w3.org/2000/svg">
<path d="M38.0739 20.6608C38.7399 14.6637 43.8253 10 50 10C56.1747 10 61.2601 14.6637 61.9261 20.6608C71.4215 25.1376 77.9999 34.7962 77.9999 46V58.6338C77.9999 59.7283 78.4347 60.7779 79.2086 61.5519L84.8283 67.1716C85.9723 68.3156 86.3145 70.0361 85.6954 71.5308C85.0763 73.0254 83.6177 74 81.9999 74L65.9999 74C65.9999 82.8366 58.8365 90 50 90C41.1635 90 34.0001 82.8366 34.0001 74L18.0001 74C16.3823 74 14.9237 73.0254 14.3046 71.5308C13.6855 70.0361 14.0277 68.3156 15.1717 67.1716L20.7914 61.5519C21.5653 60.7779 22.0001 59.7283 22.0001 58.6338V46C22.0001 34.7962 28.5785 25.1376 38.0739 20.6608ZM42 74C42 78.4183 45.5817 82 50 82C54.4183 82 58 78.4183 58 74H42ZM50 18C47.7909 18 46 19.7909 46 22V23.3657C46 25.0609 44.9314 26.5721 43.333 27.137C35.5597 29.8845 30.0001 37.2981 30.0001 46V58.6338C30.0001 61.3109 29.1148 63.8968 27.5065 66H72.4935C70.8852 63.8968 69.9999 61.3109 69.9999 58.6338V46C69.9999 37.2981 64.4403 29.8845 56.667 27.137C55.0686 26.5721 54 25.0609 54 23.3657V22C54 19.7909 52.2091 18 50 18Z" />
</svg>
