<svg width="100" height="100" viewBox="0 0 100 100" fill="none" xmlns="http://www.w3.org/2000/svg">
<path fill-rule="evenodd" clip-rule="evenodd" d="M77.2805 14.4507C77.278 15.0724 77.276 15.6968 77.276 16.3196C77.2675 17.7715 76.0836 18.8518 74.6836 18.9123C73.2836 18.9728 72.0906 17.6764 72.0906 16.3196C72.0906 15.7038 72.0931 15.0859 72.0951 14.4669C72.0971 13.8452 72.0996 13.2175 72.0996 12.5947C72.0996 11.1428 73.2921 10.0625 74.6921 10.002C76.0921 9.94154 77.2845 11.2379 77.2845 12.5947C77.2845 13.2105 77.2825 13.8317 77.2805 14.4507ZM87.1715 16.4925L84.7 18.9642C83.68 19.9926 82.064 19.9062 81.0355 18.9642C80.007 18.0221 80.0765 16.2591 81.0355 15.2998L83.5075 12.8281C84.527 11.7997 86.143 11.8861 87.1715 12.8281C88.2 13.7701 88.131 15.5332 87.1715 16.4925ZM72.2811 24.0547C73.3006 23.0262 74.9081 23.104 75.9451 24.0547C76.982 24.9967 76.913 26.7597 75.9711 27.719L67.5796 36.1107L69.5586 38.0898C70.0711 38.6079 70.5871 39.1222 71.1046 39.6377L71.8831 40.4146L72.0391 40.5682C72.1426 40.67 72.2461 40.7718 72.3501 40.8813C73.3351 41.9184 73.5686 43.3962 72.8946 44.6753C72.6761 45.0833 72.3281 45.4237 71.9916 45.7536C71.9291 45.8149 71.8666 45.8762 71.8056 45.9371L68.5991 49.1433C69.3711 51.185 69.9101 53.3071 70.2066 55.4695C70.8291 60.0327 70.4831 64.7081 69.0486 69.0986C67.5636 73.6401 65.0326 77.77 61.6596 81.1545C60.9422 81.863 60.1902 82.546 59.4037 83.1855C56.0938 85.856 52.2912 87.861 48.186 88.967C44.1501 90.056 39.9585 90.2635 35.8275 89.6845C27.4012 88.5005 19.8046 83.583 15.0686 76.548C10.4277 69.6601 8.9153 60.9402 10.7734 52.8682C12.7179 44.416 18.4564 36.9836 26.1481 32.9649C33.7274 28.9981 42.871 28.3845 50.8652 31.4093L54.5295 27.7449C55.5493 26.7424 56.9321 26.4572 58.2457 27.0449C58.7997 27.2942 59.2707 27.7877 59.7072 28.2452C59.8152 28.3586 59.9212 28.4699 60.0262 28.5746L62.6791 31.2365L63.8891 32.4463L72.2811 24.0547ZM42.7414 41.6764C43.355 41.7455 44.1587 41.3307 44.5736 40.9158C45.023 40.4664 45.36 39.7232 45.3427 39.0923C45.3082 38.4269 45.0921 37.7268 44.5822 37.2602C44.0464 36.7675 43.476 36.5861 42.75 36.4996C37.4868 35.886 31.9385 37.2083 27.5136 40.1207C26.144 41.0202 24.8672 42.0537 23.7023 43.2061C22.743 44.1654 22.6653 45.9198 23.7023 46.8704C24.7394 47.8211 26.3382 47.8902 27.3667 46.8704C27.8362 46.3964 28.3295 45.9464 28.8445 45.5222C28.9137 45.4617 28.9914 45.4012 29.0692 45.3407C29.0428 45.3672 29.0164 45.3903 28.9959 45.4083L28.9775 45.425L29.0358 45.3766C29.0781 45.3419 29.1403 45.2908 29.2248 45.2197C29.5013 45.021 29.7865 44.8222 30.0717 44.6321C31.0508 43.9769 32.0862 43.41 33.1657 42.9382C34.6485 42.3449 36.1938 41.9216 37.772 41.6764C39.423 41.4862 41.0904 41.4862 42.7414 41.6764ZM85.523 27.8706C86.1515 27.8552 86.7795 27.84 87.405 27.8225C88.762 27.7879 90.0585 26.6557 89.998 25.2298C89.9375 23.8557 88.857 22.6025 87.405 22.6371C86.7905 22.6542 86.176 22.6691 85.5625 22.6841C84.9335 22.6994 84.3055 22.7147 83.68 22.7322C82.3235 22.7667 81.027 23.8989 81.0875 25.3248C81.148 26.699 82.2285 27.9521 83.68 27.9175C84.2945 27.9005 84.9095 27.8855 85.523 27.8706ZM84.8555 32.809L82.3835 30.3374C81.4245 29.378 79.6615 29.3089 78.7195 30.3374C77.7775 31.3658 77.691 32.9819 78.7195 34.0017L81.191 36.4734C82.1505 37.4327 83.9135 37.5018 84.8555 36.4734C85.7975 35.445 85.875 33.8288 84.8555 32.809ZM67.1991 15.1529L69.6711 17.6246C70.6906 18.6444 70.6131 20.2605 69.6711 21.289C68.7291 22.3174 66.9661 22.2483 66.0066 21.289L63.5351 18.8173C62.5066 17.7975 62.5931 16.1814 63.5351 15.1529C64.4771 14.1245 66.2401 14.1936 67.1991 15.1529Z" fill="black"/>
</svg>
