<svg width="100" height="100" viewBox="0 0 100 100" fill="none" xmlns="http://www.w3.org/2000/svg">
<path d="M45 26.0218C39.5486 23.3664 33.5632 21.9909 27.5 22C21.225 22 15.285 23.4507 10 26.0218V76.0437C15.4515 73.3885 21.4368 72.013 27.5 72.022C35.845 72.022 43.59 74.5731 50 78.95C56.6304 74.4242 64.4734 72.0092 72.5 72.022C78.775 72.022 84.715 73.4726 90 76.0437V26.0218C84.5486 23.3664 78.5632 21.9909 72.5 22C66.225 22 60.285 23.4507 55 26.0218V62.0176C55 63.3442 54.4732 64.6166 53.5355 65.5547C52.5979 66.4928 51.3261 67.0198 50 67.0198C48.6739 67.0198 47.4021 66.4928 46.4645 65.5547C45.5268 64.6166 45 63.3442 45 62.0176V26.0218Z" />
</svg>
