<svg width="100" height="100" viewBox="0 0 100 100" fill="none" xmlns="http://www.w3.org/2000/svg">
<path d="M55 85C55 86.7329 55.8973 88.3422 57.3713 89.2532C58.8454 90.1643 60.6861 90.2471 62.2361 89.4721L82.2361 79.4721C83.93 78.6252 85 76.8939 85 75V46.1803C85 44.4474 84.1027 42.8381 82.6286 41.9271C81.1546 41.0161 79.3139 40.9332 77.7639 41.7082L57.7639 51.7082C56.07 52.5552 55 54.2865 55 56.1803V85Z" fill="black"/>
<path d="M76.0557 31.382C77.7496 30.535 78.8197 28.8037 78.8197 26.9098C78.8197 25.016 77.7496 23.2847 76.0557 22.4377L52.2361 10.5279C50.8284 9.82405 49.1716 9.82405 47.7639 10.5279L23.9443 22.4377C22.2504 23.2847 21.1803 25.016 21.1803 26.9098C21.1803 28.8037 22.2504 30.535 23.9443 31.382L47.7639 43.2918C49.1716 43.9956 50.8284 43.9956 52.2361 43.2918L76.0557 31.382Z" fill="black"/>
<path d="M22.2361 41.7082C20.6861 40.9332 18.8454 41.0161 17.3713 41.9271C15.8973 42.8381 15 44.4474 15 46.1803V75C15 76.8939 16.07 78.6252 17.7639 79.4721L37.7639 89.4721C39.3139 90.2471 41.1546 90.1643 42.6287 89.2532C44.1027 88.3422 45 86.7329 45 85V56.1803C45 54.2865 43.93 52.5552 42.2361 51.7082L22.2361 41.7082Z" fill="black"/>
</svg>
