<svg width="100" height="100" viewBox="0 0 100 100" fill="none" xmlns="http://www.w3.org/2000/svg">
<path fill-rule="evenodd" clip-rule="evenodd" d="M47.9739 10.4968C49.2987 9.8344 50.8581 9.8344 52.183 10.4968L83.5555 26.1831C85.1498 26.9802 86.1569 28.6097 86.1569 30.3922V69.6078C86.1569 71.3903 85.1498 73.0198 83.5555 73.8169L52.183 89.5032C50.8581 90.1656 49.2987 90.1656 47.9739 89.5032L16.6013 73.8169C15.0071 73.0198 14 71.3903 14 69.6078V30.3922C14 28.6097 15.0071 26.9802 16.6013 26.1831L47.9739 10.4968ZM23.4118 38.0064V66.6994L45.3725 77.6798V48.9868L23.4118 38.0064ZM54.7843 77.6798L76.7451 66.6994V38.0064L54.7843 48.9868V77.6798ZM50.0784 40.8171L70.9283 30.3922L50.0784 19.9672L29.2286 30.3922L50.0784 40.8171Z" fill="black"/>
</svg>
