<svg width="100" height="100" viewBox="0 0 100 100" fill="none" xmlns="http://www.w3.org/2000/svg">
<path d="M10 25C10 22.3478 11.0536 19.8043 12.9289 17.9289C14.8043 16.0536 17.3478 15 20 15H60C62.652 15 65.1955 16.0536 67.071 17.9289C68.9465 19.8043 70 22.3478 70 25V75C70 77.652 71.0535 80.1955 72.929 82.071C74.8045 83.9465 77.348 85 80 85H20C17.3478 85 14.8043 83.9465 12.9289 82.071C11.0536 80.1955 10 77.652 10 75V25ZM80 35H75V72.5C75 74.489 75.79 76.397 77.1965 77.8035C78.603 79.21 80.511 80 82.5 80C84.489 80 86.397 79.21 87.8035 77.8035C89.21 76.397 90 74.489 90 72.5V45C90 42.3479 88.9465 39.8043 87.071 37.929C85.1955 36.0536 82.652 35 80 35ZM55 60H25V70H55V60ZM55 30H25V50H55V30Z"/>
</svg>
