<svg width="100" height="100" viewBox="0 0 100 100" fill="none" xmlns="http://www.w3.org/2000/svg">
<path fill-rule="evenodd" clip-rule="evenodd" d="M50 90C72.0915 90 90 72.0915 90 50C90 27.9086 72.0915 10 50 10C27.9086 10 10 27.9086 10 50C10 72.0915 27.9086 90 50 90ZM55 30V47.9289L67.6775 60.6065C69.6305 62.559 69.6305 65.725 67.6775 67.6775C65.725 69.6305 62.559 69.6305 60.6065 67.6775L46.4644 53.5355C45.5268 52.598 45 51.326 45 50V30C45 27.2386 47.2386 25 50 25C52.7615 25 55 27.2386 55 30Z" fill="#9CA3AF"/>
</svg>
