<svg width="100" height="100" viewBox="0 0 100 100" fill="none" xmlns="http://www.w3.org/2000/svg">
<path d="M41.6663 54.1664C40.8422 54.1664 40.0366 54.4109 39.3514 54.8686C38.6662 55.3268 38.1322 55.9773 37.8168 56.7386C37.5015 57.5 37.4189 58.3377 37.5797 59.1459C37.7405 59.9545 38.1373 60.6968 38.72 61.2795C39.3027 61.8623 40.0452 62.2591 40.8534 62.42C41.6617 62.5805 42.4995 62.4982 43.2608 62.1827C44.0222 61.8673 44.6729 61.3332 45.1308 60.6482C45.5886 59.9627 45.8332 59.1573 45.8332 58.3332C45.8332 57.2282 45.394 56.1682 44.6126 55.3868C43.8312 54.6055 42.7714 54.1664 41.6663 54.1664ZM41.6663 37.4999C40.8422 37.4999 40.0366 37.7443 39.3514 38.2021C38.6662 38.66 38.1322 39.3107 37.8168 40.072C37.5015 40.8334 37.4189 41.6712 37.5797 42.4795C37.7405 43.2877 38.1373 44.0301 38.72 44.6129C39.3027 45.1956 40.0452 45.5923 40.8534 45.7532C41.6617 45.9141 42.4995 45.8314 43.2608 45.5159C44.0222 45.2007 44.6729 44.6666 45.1308 43.9815C45.5886 43.2962 45.8332 42.4907 45.8332 41.6666C45.8332 40.5615 45.394 39.5017 44.6126 38.7203C43.8312 37.9389 42.7714 37.4999 41.6663 37.4999ZM58.3332 37.4999C57.5091 37.4999 56.7032 37.7443 56.0182 38.2021C55.3327 38.66 54.7986 39.3107 54.4836 40.072C54.1682 40.8334 54.0855 41.6712 54.2464 42.4795C54.4073 43.2877 54.8041 44.0301 55.3868 44.6129C55.9695 45.1956 56.7118 45.5923 57.52 45.7532C58.3282 45.9141 59.1659 45.8314 59.9273 45.5159C60.6886 45.2007 61.3395 44.6666 61.7973 43.9815C62.2555 43.2962 62.4995 42.4907 62.4995 41.6666C62.4995 40.5615 62.0605 39.5017 61.2791 38.7203C60.4977 37.9389 59.4382 37.4999 58.3332 37.4999ZM87.4995 54.1664C88.6045 54.1664 89.6645 53.7277 90.4459 52.9464C91.2273 52.165 91.6664 51.105 91.6664 50C91.6664 48.895 91.2273 47.835 90.4459 47.0536C89.6645 46.2723 88.6045 45.8332 87.4995 45.8332H79.1664V37.4999H87.4995C88.6045 37.4999 89.6645 37.0609 90.4459 36.2795C91.2273 35.4981 91.6664 34.4383 91.6664 33.3332C91.6664 32.2282 91.2273 31.1684 90.4459 30.387C89.6645 29.6055 88.6045 29.1666 87.4995 29.1666H78.4164C77.7941 27.4191 76.7909 25.832 75.4791 24.5203C74.1677 23.2087 72.5805 22.2054 70.8332 21.5832V12.4999C70.8332 11.3948 70.3941 10.335 69.6127 9.55364C68.8314 8.77223 67.7714 8.33323 66.6664 8.33323C65.5614 8.33323 64.5014 8.77223 63.72 9.55364C62.9386 10.335 62.4995 11.3948 62.4995 12.4999V20.8332H54.1664V12.4999C54.1664 11.3948 53.7273 10.335 52.9459 9.55364C52.1645 8.77223 51.1045 8.33323 49.9995 8.33323C48.8945 8.33323 47.8345 8.77223 47.0532 9.55364C46.2718 10.335 45.8332 11.3948 45.8332 12.4999V20.8332H37.4996V12.4999C37.4996 11.3948 37.0606 10.335 36.2792 9.55364C35.4979 8.77223 34.438 8.33323 33.333 8.33323C32.2279 8.33323 31.1681 8.77223 30.3867 9.55364C29.6053 10.335 29.1663 11.3948 29.1663 12.4999V21.5832C27.4188 22.2054 25.8317 23.2087 24.52 24.5203C23.2084 25.832 22.2051 27.4191 21.583 29.1666H12.4996C11.3945 29.1666 10.3348 29.6055 9.55336 30.387C8.77195 31.1684 8.33296 32.2282 8.33296 33.3332C8.33296 34.4383 8.77195 35.4981 9.55336 36.2795C10.3348 37.0609 11.3945 37.4999 12.4996 37.4999H20.833V45.8332H12.4996C11.3945 45.8332 10.3348 46.2723 9.55336 47.0536C8.77195 47.835 8.33296 48.895 8.33296 50C8.33296 51.105 8.77195 52.165 9.55336 52.9464C10.3348 53.7277 11.3945 54.1664 12.4996 54.1664H20.833V62.5H12.4996C11.3945 62.5 10.3348 62.9391 9.55336 63.7205C8.77195 64.5018 8.33296 65.5614 8.33296 66.6664C8.33296 67.7718 8.77195 68.8314 9.55336 69.6127C10.3348 70.3941 11.3945 70.8332 12.4996 70.8332H21.583C22.2051 72.5809 23.2084 74.1677 24.52 75.4795C25.8317 76.7914 27.4188 77.7945 29.1663 78.4164V87.5C29.1663 88.605 29.6053 89.665 30.3867 90.4464C31.1681 91.2277 32.2279 91.6664 33.333 91.6664C34.438 91.6664 35.4979 91.2277 36.2792 90.4464C37.0606 89.665 37.4996 88.605 37.4996 87.5V79.1664H45.8332V87.5C45.8332 88.605 46.2718 89.665 47.0532 90.4464C47.8345 91.2277 48.8945 91.6664 49.9995 91.6664C51.1045 91.6664 52.1645 91.2277 52.9459 90.4464C53.7273 89.665 54.1664 88.605 54.1664 87.5V79.1664H62.4995V87.5C62.4995 88.605 62.9386 89.665 63.72 90.4464C64.5014 91.2277 65.5614 91.6664 66.6664 91.6664C67.7714 91.6664 68.8314 91.2277 69.6127 90.4464C70.3941 89.665 70.8332 88.605 70.8332 87.5V78.4164C72.5805 77.7945 74.1677 76.7914 75.4791 75.4795C76.7909 74.1677 77.7941 72.5809 78.4164 70.8332H87.4995C88.6045 70.8332 89.6645 70.3941 90.4459 69.6127C91.2273 68.8314 91.6664 67.7718 91.6664 66.6664C91.6664 65.5614 91.2273 64.5018 90.4459 63.7205C89.6645 62.9391 88.6045 62.5 87.4995 62.5H79.1664V54.1664H87.4995ZM70.8332 66.6664C70.8332 67.7718 70.3941 68.8314 69.6127 69.6127C68.8314 70.3941 67.7714 70.8332 66.6664 70.8332H33.333C32.2279 70.8332 31.1681 70.3941 30.3867 69.6127C29.6053 68.8314 29.1663 67.7718 29.1663 66.6664V33.3332C29.1663 32.2282 29.6053 31.1684 30.3867 30.387C31.1681 29.6055 32.2279 29.1666 33.333 29.1666H66.6664C67.7714 29.1666 68.8314 29.6055 69.6127 30.387C70.3941 31.1684 70.8332 32.2282 70.8332 33.3332V66.6664ZM58.3332 54.1664C57.5091 54.1664 56.7032 54.4109 56.0182 54.8686C55.3327 55.3268 54.7986 55.9773 54.4836 56.7386C54.1682 57.5 54.0855 58.3377 54.2464 59.1459C54.4073 59.9545 54.8041 60.6968 55.3868 61.2795C55.9695 61.8623 56.7118 62.2591 57.52 62.42C58.3282 62.5805 59.1659 62.4982 59.9273 62.1827C60.6886 61.8673 61.3395 61.3332 61.7973 60.6482C62.2555 59.9627 62.4995 59.1573 62.4995 58.3332C62.4995 57.2282 62.0605 56.1682 61.2791 55.3868C60.4977 54.6055 59.4382 54.1664 58.3332 54.1664Z"/>
</svg>
