<svg width="100" height="100" viewBox="0 0 100 100" fill="none" xmlns="http://www.w3.org/2000/svg">
<path d="M63.5339 30.4511V27.4436C63.5339 24.1216 60.8407 21.4286 57.5189 21.4286H39.4736C36.1518 21.4286 33.4586 24.1216 33.4586 27.4436V30.4511H24.4361C22.7751 30.4511 21.4286 31.7976 21.4286 33.4586C21.4286 35.1196 22.7751 36.4661 24.4361 36.4661H27.4436V69.5489C27.4436 74.5318 31.4831 78.5714 36.4661 78.5714H60.5264C65.5093 78.5714 69.5489 74.5318 69.5489 69.5489V36.4661H72.5564C74.2175 36.4661 75.5639 35.1196 75.5639 33.4586C75.5639 31.7976 74.2175 30.4511 72.5564 30.4511H63.5339ZM57.5189 27.4436H39.4736V30.4511H57.5189V27.4436ZM63.5339 36.4661H33.4586V69.5489C33.4586 71.21 34.8051 72.5564 36.4661 72.5564H60.5264C62.1871 72.5564 63.5339 71.21 63.5339 69.5489V36.4661ZM39.4736 42.4811H45.4886V66.5414H39.4736V42.4811ZM57.5189 42.4811H51.5039V66.5414H57.5189V42.4811Z"/>
</svg>
