<svg width="100" height="100" viewBox="0 0 100 100" fill="none" xmlns="http://www.w3.org/2000/svg">
<path fill-rule="evenodd" clip-rule="evenodd" d="M15 12C12.2386 12 10 14.2386 10 17C10 19.7614 12.2386 22 15 22V62C15 67.5228 19.4772 72 25 72H37.9289L31.4645 78.4645C29.5118 80.4171 29.5118 83.5829 31.4645 85.5355C33.4171 87.4882 36.5829 87.4882 38.5355 85.5355L50 74.0711L61.4645 85.5355C63.4171 87.4882 66.5829 87.4882 68.5355 85.5355C70.4882 83.5829 70.4882 80.4171 68.5355 78.4645L62.0711 72H75C80.5228 72 85 67.5228 85 62V22C87.7614 22 90 19.7614 90 17C90 14.2386 87.7614 12 85 12H15ZM73.5355 35.5355L53.5355 55.5355C51.5829 57.4882 48.4171 57.4882 46.4645 55.5355L40 49.0711L33.5355 55.5355C31.5829 57.4882 28.4171 57.4882 26.4645 55.5355C24.5118 53.5829 24.5118 50.4171 26.4645 48.4645L36.4645 38.4645C38.4171 36.5118 41.5829 36.5118 43.5355 38.4645L50 44.9289L66.4645 28.4645C68.4171 26.5118 71.5829 26.5118 73.5355 28.4645C75.4882 30.4171 75.4882 33.5829 73.5355 35.5355Z" fill="black"/>
</svg>
