<svg width="100" height="101" viewBox="0 0 100 101" fill="none" xmlns="http://www.w3.org/2000/svg">
<path fill-rule="evenodd" clip-rule="evenodd" d="M64.1421 15.8579C67.8929 19.6086 70 24.6957 70 30C75.3043 30 80.3914 32.1071 84.1421 35.8579C87.8929 39.6086 90 44.6957 90 50C90 55.3043 87.8929 60.3914 84.1421 64.1421C80.3914 67.8929 75.3043 70 70 70H45C45.0235 69.6838 45.0235 69.3662 45 69.05L57.3 62.9C58.5461 64.0989 60.1681 64.8304 61.8916 64.9707C63.615 65.1109 65.334 64.6514 66.7575 63.6698C68.1811 62.6882 69.2217 61.2449 69.7033 59.5841C70.1848 57.9234 70.0778 56.1473 69.4002 54.5564C68.7226 52.9655 67.5161 51.6577 65.985 50.8542C64.4538 50.0507 62.6921 49.801 60.998 50.1473C59.3038 50.4936 57.7814 51.4147 56.6884 52.7546C55.5954 54.0944 54.9989 55.7708 55 57.5C54.9765 57.8162 54.9765 58.1338 55 58.45L42.7 64.6C41.6402 63.5804 40.3041 62.8948 38.8577 62.6285C37.4114 62.3623 35.9187 62.5272 34.5653 63.1026C33.2119 63.6781 32.0576 64.6387 31.2459 65.8651C30.4342 67.0914 30.0009 68.5294 30 70C24.6957 70 19.6086 67.8929 15.8579 64.1421C12.1071 60.3914 10 55.3043 10 50C10 44.6957 12.1071 39.6086 15.8579 35.8579C19.6086 32.1071 24.6957 30 30 30C30 24.6957 32.1071 19.6086 35.8579 15.8579C39.6086 12.1071 44.6957 10 50 10C55.3043 10 60.3914 12.1071 64.1421 15.8579ZM30 70C30 71.9891 30.7902 73.8968 32.1967 75.3033C33.6032 76.7098 35.5109 77.5 37.5 77.5C39.3703 77.4482 41.1536 76.6992 42.5 75.4L55 81.55C54.9765 81.8662 54.9765 82.1838 55 82.5C54.9989 84.2292 55.5954 85.9056 56.6884 87.2454C57.7814 88.5853 59.3038 89.5064 60.998 89.8527C62.6921 90.199 64.4538 89.9493 65.985 89.1458C67.5161 88.3423 68.7226 87.0345 69.4002 85.4436C70.0778 83.8527 70.1848 82.0766 69.7033 80.4159C69.2217 78.7551 68.1811 77.3118 66.7575 76.3302C65.334 75.3486 63.615 74.8891 61.8916 75.0293C60.1681 75.1696 58.5461 75.9011 57.3 77.1L45 70.95C45.0235 70.6338 45.0235 70.3162 45 70H30Z" fill="black"/>
</svg>
