<svg width="100" height="100" viewBox="0 0 100 100" fill="none" xmlns="http://www.w3.org/2000/svg">
<path fill-rule="evenodd" clip-rule="evenodd" d="M20.4148 45C21.8756 36.2924 27.0876 28.8568 34.3322 24.4114C32.0614 30.1454 30.5891 37.268 30.1431 45H20.4148ZM50 10C27.9086 10 10 27.9086 10 50C10 72.0915 27.9086 90 50 90C72.0915 90 90 72.0915 90 50C90 27.9086 72.0915 10 50 10ZM50 20C50.3802 20 51.1606 20.1587 52.3265 21.3092C53.5138 22.481 54.8124 24.4245 56.0109 27.2208C57.9543 31.7555 59.3755 37.928 59.8382 45H40.1619C40.6246 37.928 42.0457 31.7555 43.9891 27.2208C45.1876 24.4245 46.4861 22.481 47.6735 21.3092C48.8393 20.1587 49.6198 20 50 20ZM69.857 45C69.411 37.268 67.9385 30.1454 65.668 24.4114C72.9125 28.8568 78.1245 36.2924 79.585 45H69.857ZM59.8382 55C59.3755 62.072 57.9543 68.2445 56.0109 72.779C54.8124 75.5755 53.5138 77.519 52.3265 78.691C51.1606 79.8415 50.3802 80 50 80C49.6198 80 48.8393 79.8415 47.6735 78.691C46.4861 77.519 45.1876 75.5755 43.9891 72.779C42.0457 68.2445 40.6246 62.072 40.1619 55H59.8382ZM65.668 75.5885C67.9385 69.8545 69.411 62.732 69.857 55H79.585C78.1245 63.7075 72.9125 71.1435 65.668 75.5885ZM34.3322 75.5885C27.0876 71.1435 21.8756 63.7075 20.4148 55H30.1431C30.5891 62.732 32.0614 69.8545 34.3322 75.5885Z" fill="black"/>
</svg>
