<svg width="100" height="100" viewBox="0 0 100 100" fill="none" xmlns="http://www.w3.org/2000/svg">
<path fill-rule="evenodd" clip-rule="evenodd" d="M50 15C47.2386 15 45 17.2386 45 20V30H20C14.4772 30 10 34.4772 10 40V75C10 80.523 14.4772 85 20 85H80C85.523 85 90 80.523 90 75V40C90 34.4772 85.523 30 80 30H55V20C55 17.2386 52.7614 15 50 15ZM55 30V57.9289L61.4645 51.4645C63.417 49.5118 66.583 49.5118 68.5355 51.4645C70.488 53.4171 70.488 56.5829 68.5355 58.5356L53.5356 73.5355C51.5829 75.488 48.4171 75.488 46.4645 73.5355L31.4645 58.5356C29.5118 56.5829 29.5118 53.4171 31.4645 51.4645C33.4171 49.5118 36.5829 49.5118 38.5355 51.4645L45 57.9289V30H55Z" fill="#9CA3AF"/>
</svg>
