<svg width="100" height="100" viewBox="0 0 100 100" fill="none" xmlns="http://www.w3.org/2000/svg">
<path d="M72.6275 18.7559C73.8261 17.5576 75.7689 17.5576 76.9671 18.7559L81.3068 23.0954C82.505 24.2937 82.505 26.2366 81.3068 27.4349L78.6296 30.1117C80.2643 33.5335 79.6646 37.7561 76.8304 40.59L44.2839 73.1364L26.9261 55.7786L59.4725 23.2321C62.3064 20.3979 66.5289 19.7981 69.9507 21.4327L72.6275 18.7559ZM44.2839 64.4575L63.8707 44.8707L55.1918 36.1918L35.6051 55.7786L44.2839 64.4575ZM72.4911 36.2507L69.45 39.2914L60.7711 30.6124L63.8118 27.5716C65.0104 26.3732 66.9532 26.3732 68.1514 27.5716L72.4911 31.9111C73.6893 33.1094 73.6893 35.0523 72.4911 36.2507ZM24.3676 58.2743L17.8571 82.1429L41.7243 75.6336L24.3676 58.2743Z"/>
</svg>
