<svg width="100" height="100" viewBox="0 0 100 100" fill="none" xmlns="http://www.w3.org/2000/svg">
<path d="M58.9 44.7817H86.5913C87.4323 44.6701 88.2041 44.2568 88.7631 43.6187C89.3221 42.9805 89.6303 42.1611 89.6303 41.3127C89.6303 40.4644 89.3221 39.6449 88.7631 39.0068C88.2041 38.3687 87.4323 37.9553 86.5913 37.8437H67.1161L88.9953 15.9646C89.3185 15.6478 89.5742 15.2687 89.7468 14.8503C89.9194 14.4318 90.0054 13.9827 89.9995 13.5302C90.0075 13.0746 89.9258 12.6219 89.7588 12.1979C89.5919 11.7739 89.3431 11.387 89.0266 11.0592C88.7101 10.7314 88.3321 10.4692 87.9143 10.2875C87.4964 10.1058 87.0469 10.0082 86.5913 10.0003C86.1387 9.99438 85.6896 10.0803 85.2712 10.2529C84.8528 10.4255 84.4737 10.6812 84.1569 11.0045L62.2473 32.8836V13.4997C62.1661 12.6318 61.764 11.8255 61.1195 11.2385C60.4751 10.6516 59.6348 10.3263 58.7631 10.3263C57.8914 10.3263 57.0511 10.6516 56.4067 11.2385C55.7622 11.8255 55.3601 12.6318 55.2789 13.4997V40.8867C55.2789 40.8867 55.2789 41.191 55.2789 41.3431C55.2789 42.2713 55.6476 43.1614 56.3038 43.8176C56.9601 44.4739 57.8502 44.8426 58.7783 44.8426L58.9 44.7817Z" fill="#9CA3AF"/>
<path d="M41.3733 89.909C41.8289 89.9051 42.2792 89.8114 42.6985 89.6334C43.1179 89.4553 43.4981 89.1965 43.8174 88.8715C44.1367 88.5465 44.3889 88.1619 44.5595 87.7395C44.7301 87.317 44.8159 86.8652 44.8119 86.4096V58.1097C44.8119 58.1097 44.8119 57.8967 44.8119 57.8054C44.7374 57.4888 44.625 57.1823 44.4772 56.8925L44.325 56.6491C44.1432 56.3707 43.9171 56.124 43.6555 55.9188C43.0658 55.4489 42.34 55.182 41.5863 55.158H13.469C12.6011 55.2392 11.7948 55.6414 11.2078 56.2858C10.6209 56.9303 10.2955 57.7706 10.2955 58.6422C10.2955 59.5139 10.6209 60.3542 11.2078 60.9987C11.7948 61.6431 12.6011 62.0453 13.469 62.1265H32.9138L11.0651 83.9752C10.7276 84.2971 10.4591 84.6844 10.276 85.1133C10.0929 85.5423 9.99903 86.004 10 86.4705C10 86.926 10.0897 87.3771 10.2641 87.798C10.4384 88.2189 10.6939 88.6013 11.0161 88.9234C11.3382 89.2455 11.7206 89.5011 12.1415 89.6754C12.5624 89.8497 13.0135 89.9395 13.469 89.9395C14.362 89.9047 15.2093 89.5354 15.8426 88.9049L37.8434 66.9648V86.3792C37.8394 86.8373 37.9262 87.2916 38.0987 87.716C38.2712 88.1404 38.5261 88.5265 38.8487 88.8518C39.1712 89.1772 39.555 89.4354 39.9778 89.6117C40.4007 89.7879 40.8543 89.8786 41.3124 89.8786L41.3733 89.909Z" fill="#9CA3AF"/>
</svg>
