<svg width="100" height="100" viewBox="0 0 100 100" fill="none" xmlns="http://www.w3.org/2000/svg">
<path fill-rule="evenodd" clip-rule="evenodd" d="M58.7837 10.1675C60.1698 10.5356 61.3311 11.4812 61.9725 12.764C64.3903 17.5996 66.1948 20.5344 68.0103 22.914C69.8479 25.3226 71.7917 27.2944 74.7486 30.2514C81.5818 37.0846 84.9999 46.0506 84.9999 55.0001C84.9999 63.9496 81.5818 72.9156 74.7486 79.7488C61.0803 93.4171 38.9196 93.4171 25.2512 79.7488C18.4181 72.9156 15 63.9496 15 55.0001C15 46.0506 18.418 37.0846 25.2512 30.2514C26.6812 28.8214 28.8318 28.3936 30.7002 29.1675C32.5686 29.9414 33.7868 31.7646 33.7868 33.7869C33.7868 39.386 34.1364 43.6522 35.774 47.0551C36.6745 48.9263 38.0792 50.7557 40.5002 52.3882C41.0784 47.0843 42.1376 40.6224 43.5687 34.4888C44.6955 29.6597 46.0969 24.8386 47.7649 20.8183C48.5992 18.8074 49.5427 16.8927 50.6142 15.2395C51.6572 13.6304 52.9972 11.9929 54.7269 10.8398C55.9202 10.0442 57.3976 9.79943 58.7837 10.1675ZM60.6065 75.6065C54.7487 81.4644 45.2512 81.4644 39.3934 75.6065C36.4644 72.6776 35 68.8388 35 65C35 65 39.3934 67.4999 47.5002 67.4999C47.5002 62.4999 50.0002 47.4999 53.7502 44.9999C56.2502 49.9999 57.6776 51.4644 60.6065 54.3934C63.5355 57.3223 64.9999 61.1611 64.9999 65C64.9999 68.8388 63.5355 72.6776 60.6065 75.6065Z" fill="black"/>
</svg>
