<svg width="100" height="100" viewBox="0 0 100 100" fill="none" xmlns="http://www.w3.org/2000/svg">
<path fill-rule="evenodd" clip-rule="evenodd" d="M85.9832 10.0609H86.3788L86.5005 10C87.4286 10 88.3187 10.3687 88.975 11.025C89.6313 11.6813 90 12.5714 90 13.4995V13.9559V41.3431C89.9188 42.211 89.5166 43.0174 88.8722 43.6043C88.2277 44.1913 87.3874 44.5166 86.5157 44.5166C85.6441 44.5166 84.8037 44.1913 84.1593 43.6043C83.5149 43.0174 83.1127 42.211 83.0315 41.3431V21.9591L61.1217 43.8384C60.8049 44.1617 60.4258 44.4174 60.0074 44.59C59.589 44.7626 59.1399 44.8485 58.6873 44.8426C58.2317 44.8347 57.7822 44.7371 57.3643 44.5554C56.9465 44.3737 56.5685 44.1115 56.252 43.7837C55.9355 43.4559 55.6867 43.0689 55.5198 42.645C55.3528 42.221 55.2711 41.7683 55.2791 41.3127C55.2732 40.8601 55.3592 40.411 55.5318 39.9926C55.7044 39.5742 55.96 39.1951 56.2833 38.8783L78.1626 16.999H58.6873C57.8463 16.8873 57.0745 16.474 56.5155 15.8359C55.9565 15.1977 55.6483 14.3783 55.6483 13.5299C55.6483 12.6816 55.9565 11.8621 56.5155 11.224C57.0745 10.5858 57.8463 10.1725 58.6873 10.0609H85.9832ZM12.1135 55.4643C12.5329 55.2863 12.9832 55.1926 13.4387 55.1887L13.4996 55.2191C13.9577 55.2191 14.4113 55.3098 14.8342 55.486C15.2571 55.6623 15.6409 55.9205 15.9634 56.2459C16.2859 56.5712 16.5408 56.9573 16.7134 57.3817C16.8859 57.8061 16.9727 58.2604 16.9687 58.7186V78.133L38.9697 56.1929C39.603 55.5623 40.4503 55.193 41.3433 55.1582C41.7988 55.1582 42.2499 55.248 42.6708 55.4223C43.0917 55.5966 43.4741 55.8522 43.7962 56.1743C44.1184 56.4964 44.3739 56.8788 44.5482 57.2997C44.7226 57.7206 44.8123 58.1717 44.8123 58.6273C44.8133 59.0937 44.7194 59.5554 44.5363 59.9844C44.3532 60.4134 44.0847 60.8006 43.7472 61.1226L21.8983 82.9714H41.3433C42.2112 83.0526 43.0175 83.4548 43.6045 84.0993C44.1914 84.7437 44.5168 85.584 44.5168 86.4557C44.5168 87.3274 44.1914 88.1677 43.6045 88.8121C43.0175 89.4566 42.2112 89.8588 41.3433 89.94H13.2257C12.472 89.9159 11.7463 89.6491 11.1565 89.1792C10.8949 88.974 10.6688 88.7273 10.487 88.4489L10.3349 88.2054C10.187 87.9157 10.0746 87.6092 10.0001 87.2925V86.9882V86.5014V58.6881C9.99612 58.2326 10.0819 57.7807 10.2525 57.3583C10.4232 56.9358 10.6753 56.5512 10.9946 56.2262C11.3139 55.9012 11.6941 55.6424 12.1135 55.4643Z" fill="black"/>
</svg>
