<svg width="100" height="100" viewBox="0 0 100 100" fill="none" xmlns="http://www.w3.org/2000/svg">
<path d="M51.4645 61.4645C49.5119 63.417 49.5119 66.583 51.4645 68.5355C53.4171 70.488 56.5829 70.488 58.5356 68.5355L73.5355 53.5356C75.488 51.5829 75.488 48.4171 73.5355 46.4645L58.5356 31.4645C56.5829 29.5119 53.4171 29.5119 51.4645 31.4645C49.5119 33.4171 49.5119 36.5829 51.4645 38.5355L57.9289 45H30V20C30 14.4772 34.4771 10 40 10H75C80.523 10 85 14.4772 85 20V80C85 85.523 80.523 90 75 90H40C34.4771 90 30 85.523 30 80V55H57.9289L51.4645 61.4645Z" fill="black"/>
<path d="M20 55C17.2386 55 15 52.7614 15 50C15 47.2386 17.2386 45 20 45H30V55H20Z" fill="black"/>
</svg>
