<svg width="100" height="100" viewBox="0 0 100 100" fill="none" xmlns="http://www.w3.org/2000/svg">
<path d="M50 90C72.0914 90 90 72.0914 90 50C90 27.9086 72.0914 10 50 10C27.9086 10 10 27.9086 10 50C10 72.0914 27.9086 90 50 90ZM21.6589 40.137C23.5271 34.768 26.8779 30.0932 31.221 26.6028C32.5605 28.6483 34.8725 29.9996 37.5001 29.9996C41.6422 29.9996 45.0001 33.3574 45.0001 37.4996V39.9996C45.0001 45.5224 49.4772 49.9996 55.0001 49.9996C60.5229 49.9996 65.0001 45.5224 65.0001 39.9996C65.0001 35.299 68.2433 31.3559 72.6142 30.2859C77.2139 35.558 80.0001 42.4535 80.0001 49.9996C80.0001 51.7035 79.858 53.3741 79.5851 55.0005H74.9999C69.477 55.0005 64.9999 59.4776 64.9999 65.0005V75.9863C60.5873 78.5388 55.4638 79.9996 49.9996 79.9996V70C49.9996 64.4772 45.5224 60 39.9996 60C34.4767 60 29.9996 55.5228 29.9996 50C29.9996 45.0425 26.3921 40.9275 21.6589 40.137Z" />
</svg>
