<svg width="100" height="100" viewBox="0 0 100 100" fill="none" xmlns="http://www.w3.org/2000/svg">
<path d="M50 13C47.2386 13 45 15.2386 45 18V23C45 25.7614 47.2386 28 50 28C52.7615 28 55 25.7614 55 23V18C55 15.2386 52.7615 13 50 13Z" fill="black"/>
<path fill-rule="evenodd" clip-rule="evenodd" d="M20 23H35C35 31.2842 41.7158 38 50 38C58.2842 38 65 31.2842 65 23H80C85.523 23 90 27.4771 90 33V78C90 83.523 85.523 88 80 88H20C14.4772 88 10 83.523 10 78V33C10 27.4771 14.4772 23 20 23ZM32.5 58C36.6421 58 40 54.6421 40 50.5C40 46.3579 36.6421 43 32.5 43C28.3579 43 25 46.3579 25 50.5C25 54.6421 28.3579 58 32.5 58ZM44.7524 78C44.9163 77.192 45.0025 76.356 45.0025 75.5C45.0025 68.5965 39.406 63 32.5025 63C25.5989 63 20.0024 68.5965 20.0024 75.5C20.0024 76.356 20.0885 77.192 20.2525 78H44.7524ZM60 48C57.2386 48 55 50.2386 55 53C55 55.7614 57.2385 58 60 58H75C77.7615 58 80 55.7614 80 53C80 50.2386 77.7615 48 75 48H60ZM55 68C55 65.2385 57.2386 63 60 63H70C72.7615 63 75 65.2385 75 68C75 70.7615 72.7615 73 70 73H60C57.2386 73 55 70.7615 55 68Z" fill="black"/>
</svg>
