<svg width="100" height="100" viewBox="0 0 100 100" fill="none" xmlns="http://www.w3.org/2000/svg">
<path d="M50 17.2727C31.9252 17.2727 17.2727 31.9252 17.2727 50C17.2727 68.0748 31.9252 82.7273 50 82.7273C68.0748 82.7273 82.7273 68.0748 82.7273 50C82.7273 31.9252 68.0748 17.2727 50 17.2727ZM10 50C10 27.9086 27.9086 10 50 10C72.0914 10 90 27.9086 90 50C90 72.0914 72.0914 90 50 90C27.9086 90 10 72.0914 10 50ZM46.3636 33.8384C46.3636 31.8301 47.9917 30.202 50 30.202H50.0404C52.0487 30.202 53.6768 31.8301 53.6768 33.8384C53.6768 35.8467 52.0487 37.4747 50.0404 37.4747H50C47.9917 37.4747 46.3636 35.8467 46.3636 33.8384ZM42.3232 50C42.3232 47.9917 43.9513 46.3636 45.9596 46.3636H50C52.0083 46.3636 53.6364 47.9917 53.6364 50V62.5253H54.0404C56.0487 62.5253 57.6768 64.1533 57.6768 66.1616C57.6768 68.1699 56.0487 69.798 54.0404 69.798H50C47.9917 69.798 46.3636 68.1699 46.3636 66.1616V53.6364H45.9596C43.9513 53.6364 42.3232 52.0083 42.3232 50Z" />
</svg>
