<svg width="100" height="100" viewBox="0 0 100 100" fill="none" xmlns="http://www.w3.org/2000/svg">
<path fill-rule="evenodd" clip-rule="evenodd" d="M90 50C90 72.0914 72.0914 90 50 90C27.9086 90 10 72.0914 10 50C10 27.9086 27.9086 10 50 10C72.0914 10 90 27.9086 90 50ZM55 30C55 27.2386 52.7614 25 50 25C47.2386 25 45 27.2386 45 30C45 32.7614 47.2386 35 50 35C52.7614 35 55 32.7614 55 30ZM45 45C42.2386 45 40 47.2386 40 50C40 52.7614 42.2386 55 45 55V70C45 72.7614 47.2386 75 50 75H55C57.7614 75 60 72.7614 60 70C60 67.2386 57.7614 65 55 65V50C55 47.2386 52.7614 45 50 45H45Z" fill="black"/>
</svg>
