<svg width="100" height="100" viewBox="0 0 100 100" fill="none" xmlns="http://www.w3.org/2000/svg">
<path d="M39.1383 35.245C41.3831 30.3697 45.5727 27.4228 49.2692 24.823C51.8465 23.0105 54.0721 21.4448 55.0854 19.6059C57.5441 15.1555 56.6604 10.8358 56.6512 10.7928C56.5862 10.4888 56.7439 10.1809 57.0284 10.0555C57.3133 9.93036 57.6464 10.0224 57.8269 10.2758C57.8733 10.3409 62.417 16.873 58.3289 23.5162C56.4667 26.534 53.2844 29.1137 50.4767 31.3898L50.476 31.3903L50.4752 31.391C47.4098 33.876 44.5146 36.2231 44.4584 38.2919C44.3 44.2331 48.5634 52.5143 48.6064 52.5972C48.748 52.87 48.6811 53.2049 48.4454 53.4022C48.3236 53.504 48.1739 53.5551 48.0244 53.5551C47.8835 53.5551 47.7424 53.51 47.6244 53.419C47.1168 53.0281 35.2393 43.7502 39.1383 35.245ZM65.0226 26.9119C65.1805 27.1977 65.1039 27.556 64.8432 27.7525C64.7673 27.8094 57.2508 33.49 55.5904 36.4812C54.1738 39.0462 55.1075 40.435 56.4004 42.3574C57.235 43.5983 58.1808 45.0048 58.578 46.9292C59.6442 51.9928 53.6998 56.1956 53.4462 56.3721C53.3331 56.4508 53.2022 56.4896 53.0719 56.4896C52.9187 56.4896 52.7658 56.4361 52.6433 56.3304C52.4167 56.1347 52.3513 55.8103 52.4846 55.5422C52.9467 54.6105 54.046 51.8591 53.582 50.3367C53.4173 49.8084 52.9171 49.1896 52.3377 48.4733L52.3375 48.473C50.8605 46.6462 48.8379 44.1444 48.8379 39.4095C48.8379 32.5397 63.5875 26.8544 64.2155 26.6157C64.5208 26.4998 64.8647 26.6259 65.0226 26.9119ZM26.4496 56.599C26.1967 57.3558 26.316 58.1073 26.7944 58.7718C28.3934 60.9911 34.0569 62.2136 42.7425 62.2136H42.7436C43.9205 62.2136 45.163 62.1906 46.4357 62.1449C60.3224 61.6475 65.4731 57.3219 65.6856 57.1379C65.9171 56.9374 65.9791 56.6035 65.8351 56.3333C65.6911 56.0634 65.3805 55.9278 65.0839 56.0094C60.1933 57.3449 51.0608 57.8188 44.7263 57.8188C37.6383 57.8188 34.0286 57.3082 33.1449 56.9313C33.5984 56.3087 36.3952 55.1968 39.861 54.5151C40.1922 54.45 40.4199 54.1442 40.3872 53.8082C40.3544 53.4722 40.0721 53.216 39.7345 53.216C37.7028 53.2162 27.5144 53.3793 26.4496 56.599ZM67.2226 53.6401C67.3369 53.579 70.0532 52.1437 72.9172 52.1437C75.312 52.1437 78.3506 53.1583 79.2245 57.9925C80.6569 65.8809 67.1087 68.8668 66.5309 68.9901C66.4853 69 66.4394 69.0047 66.394 69.0047C66.1344 69.0047 65.8933 68.8499 65.7897 68.6024C65.6677 68.312 65.7697 67.976 66.0326 67.8019C68.4659 66.192 74.6743 61.3609 74.1892 58.3793C73.6414 54.9235 67.5925 54.8742 67.5318 54.8739C67.2311 54.8737 66.969 54.6688 66.896 54.3774C66.8234 54.0857 66.9577 53.782 67.2226 53.6401ZM63.6263 66.8367C63.6735 66.584 63.5684 66.3266 63.358 66.1793L60.1095 63.904C59.9511 63.7929 59.7509 63.7581 59.5649 63.8075C59.5311 63.8165 56.1338 64.7092 51.2016 65.2569C49.2441 65.4762 47.0516 65.5925 44.8607 65.5925C39.9297 65.5925 36.7056 65.0132 36.2361 64.5882C36.1739 64.4687 36.1936 64.4146 36.2046 64.3845C36.2899 64.1468 36.7471 63.8649 37.0419 63.7534C37.3674 63.6329 37.5429 63.2795 37.4416 62.9473C37.3407 62.6155 36.9984 62.4198 36.6605 62.5012C33.4017 63.2875 31.8083 64.3873 31.9242 65.7694C32.1301 68.2202 37.807 69.4781 42.6062 69.8108C43.2963 69.8579 44.0428 69.8824 44.8242 69.8824H44.8255C52.8058 69.8824 63.0364 67.3784 63.1387 67.3529C63.3884 67.2913 63.5788 67.0894 63.6263 66.8367ZM39.4023 71.3525C39.4896 71.6325 39.3805 71.9365 39.1344 72.0969C39.0167 72.1835 39.0012 72.2833 39.0133 72.3624C39.8516 72.7821 44.2224 73.4245 48.1521 73.4245C49.2459 73.4245 50.1781 73.3732 50.9225 73.272C54.8564 72.7379 57.4631 72.1972 57.4891 72.1915C57.6517 72.1581 57.8222 72.1873 57.9647 72.2739L62.0701 74.7802C62.2757 74.9059 62.3959 75.1341 62.383 75.3751C62.3702 75.6155 62.2264 75.8297 62.0085 75.9327C61.7837 76.0391 56.4152 78.5346 48.4441 78.5346C47.6994 78.5346 46.9461 78.5125 46.2043 78.4682C39.9344 78.1045 36.2161 77.1341 34.8385 75.5016C34.3447 74.9162 34.1356 74.2494 34.2169 73.5195C34.4855 71.0767 38.3221 70.904 38.7588 70.8922C39.0531 70.8885 39.3152 71.0725 39.4023 71.3525ZM44.7293 86.0701C62.9877 86.0546 72.7873 82.808 74.6748 80.7647C75.3435 80.0414 75.4155 79.3572 75.3586 78.9101C75.2183 77.8099 74.2165 77.1369 74.1026 77.0635C73.8287 76.8875 73.4607 76.9336 73.2471 77.1802C73.0339 77.4268 73.0287 77.7868 73.2428 78.0334C73.3581 78.1816 73.4245 78.4292 73.088 78.7666C72.3332 79.4711 64.7214 81.6108 52.0479 82.2532C50.3117 82.344 48.4909 82.3897 46.6359 82.3897C35.2885 82.3897 26.9839 80.8358 25.8938 79.9299C26.3143 79.3261 29.2515 78.3614 32.3754 77.816C32.7274 77.7548 32.9653 77.4231 32.9108 77.0697C32.8562 76.7167 32.5307 76.4739 32.175 76.52C32.0869 76.5318 31.7881 76.5501 31.4416 76.5713C26.2873 76.8861 20.3308 77.5878 20.02 80.2433C19.9256 81.0527 20.1661 81.7868 20.735 82.4264C22.127 83.9906 26.1283 86.0701 44.7285 86.0701H44.7293ZM77.5059 81.4889C77.6988 81.2814 78.0038 81.2212 78.2616 81.3402C78.5191 81.4598 78.6711 81.7308 78.6376 82.0127C78.6136 82.2141 77.9426 86.968 68.3548 88.6489C63.2128 89.5454 57.7693 90 52.1753 90C40.5121 90 31.982 88.0014 31.8973 87.9812C31.5689 87.9031 31.3533 87.5882 31.3997 87.2537C31.4459 86.9186 31.7368 86.6715 32.0767 86.6885C32.158 86.6918 40.2973 87.0282 48.8513 87.0282C57.3893 87.0282 63.3206 86.7073 66.4804 86.0739C74.7341 84.3882 77.4791 81.5176 77.5059 81.4889Z"/>
</svg>
