<svg width="100" height="100" viewBox="0 0 100 100" fill="none" xmlns="http://www.w3.org/2000/svg">
<path fill-rule="evenodd" clip-rule="evenodd" d="M90 40C90 56.5685 76.5685 70 60 70C56.9691 70 54.0433 69.5505 51.2854 68.7146L40 80H30V90H10V70L31.2854 48.7146C30.4495 45.9568 30 43.0309 30 40C30 23.4315 43.4315 10 60 10C76.5685 10 90 23.4315 90 40ZM60 20C57.2386 20 55 22.2386 55 25C55 27.7614 57.2386 30 60 30C65.5228 30 70 34.4772 70 40C70 42.7614 72.2386 45 75 45C77.7614 45 80 42.7614 80 40C80 28.9543 71.0457 20 60 20Z" fill="black"/>
</svg>
