<svg width="100" height="100" viewBox="0 0 100 100" fill="none" xmlns="http://www.w3.org/2000/svg">
<path d="M73.0923 90C64.0919 90 59.5899 86.8139 56.4806 78.2416L49.2074 58.6782L36.5352 90H18L41.7221 36.6922L40.3698 33.1861C37.32 25.5635 35.9694 24.8261 31.054 24.8226C30.7685 24.9374 30.3901 25.0365 29.7332 25.1444L27.6959 25.4765V11.28L29.8225 10.7217C31.3816 10.3026 32.5115 10 34.5961 10C46.6813 10 50.9328 15.6122 56.8484 31.4191L71.7104 70.6555C73.1872 74.6277 74.3376 75.2261 77.528 75.2261C78.1936 75.2261 79.4672 74.96 79.8859 74.8715L82 74.4277V88.6992L80.7771 89.0837C79.0325 89.6315 75.944 90 73.0923 90Z"/>
</svg>
