<svg width="100" height="100" viewBox="0 0 100 100" fill="none" xmlns="http://www.w3.org/2000/svg">
<path d="M68.5375 37.755H63.0954C63.0954 31.7438 58.2221 26.8707 52.2107 26.8707C46.1996 26.8707 41.3264 31.7438 41.3264 37.755V45.9182H65.8164C70.3246 45.9182 73.9796 49.5732 73.9796 54.0818V70.4082C73.9796 74.9168 70.3246 78.5714 65.8164 78.5714H33.1633C28.6548 78.5714 25 74.9168 25 70.4082V54.0818C25 49.5732 28.6548 45.9182 33.1633 45.9182H35.8843V37.755C35.8843 28.7382 43.1939 21.4286 52.2107 21.4286C61.2279 21.4286 68.5375 28.7382 68.5375 37.755ZM65.8164 51.3607H33.1633C31.6605 51.3607 30.4422 52.5789 30.4422 54.0818V70.4082C30.4422 71.9111 31.6605 73.1293 33.1633 73.1293H65.8164C67.3193 73.1293 68.5375 71.9111 68.5375 70.4082V54.0818C68.5375 52.5789 67.3193 51.3607 65.8164 51.3607Z"/>
</svg>
