<svg width="100" height="100" viewBox="0 0 100 100" fill="none" xmlns="http://www.w3.org/2000/svg">
<path d="M22.9289 12.9289C24.8043 11.0536 27.3478 10 30 10H52.93C55.5819 10.0006 58.1251 11.0545 60 12.93L77.07 30C78.9455 31.8749 79.9994 34.4181 80 37.07V80C80 82.6522 78.9464 85.1957 77.0711 87.0711C75.1957 88.9464 72.6522 90 70 90H30C27.3478 90 24.8043 88.9464 22.9289 87.0711C21.0536 85.1957 20 82.6522 20 80V20C20 17.3478 21.0536 14.8043 22.9289 12.9289ZM55.2 75.6V50C55.2 47.349 53.051 45.2 50.4 45.2C47.749 45.2 45.6 47.349 45.6 50V75.6C45.6 78.251 47.749 80.4 50.4 80.4C53.051 80.4 55.2 78.251 55.2 75.6ZM40 59.6C40 56.949 37.851 54.8 35.2 54.8C32.549 54.8 30.4 56.949 30.4 59.6V75.6C30.4 78.251 32.549 80.4 35.2 80.4C37.851 80.4 40 78.251 40 75.6V59.6ZM65.6 80.4C68.251 80.4 70.4 78.251 70.4 75.6V39.6C70.4 36.949 68.251 34.8 65.6 34.8C62.949 34.8 60.8 36.949 60.8 39.6V75.6C60.8 78.251 62.949 80.4 65.6 80.4Z"/>
</svg>
