<svg width="200" height="200" viewBox="0 0 200 200" fill="none" xmlns="http://www.w3.org/2000/svg">
<rect width="200" height="200" fill="#1E1E1E"/>
<rect width="200" height="200" fill="white"/>
<path d="M80.0956 123.514C79.6877 123.106 79.352 122.654 79.0886 122.172L65.6997 108.783C63.3958 106.479 63.3958 102.744 65.6997 100.44L74.0428 92.0967C76.3467 89.7928 80.0821 89.7928 82.386 92.0967L92.7781 102.489L117.64 77.6271C119.944 75.3232 123.679 75.3232 125.983 77.6271L134.326 85.9702C136.63 88.2741 136.63 92.0095 134.326 94.3134L96.7819 131.858C94.478 134.161 90.7427 134.161 88.4388 131.858L80.0956 123.514Z" fill="#1E1E1E"/>
<path fill-rule="evenodd" clip-rule="evenodd" d="M69.0917 8.77704C66.0992 9.57888 63.8071 11.9879 63.155 15.0166L61.9159 20.7725C61.64 22.0538 61.6731 23.3824 62.0123 24.6484L65.5332 37.7887C59.6642 41.1167 54.3698 45.2086 49.7464 49.8977L38.6267 43.4777C37.4916 42.8223 36.2168 42.4465 34.9077 42.3813L29.0273 42.0886C25.933 41.9345 23.0128 43.525 21.4638 46.208L14.7113 57.9037C13.1623 60.5867 13.245 63.9109 14.9255 66.5136L18.1193 71.4598C18.8302 72.5609 19.7931 73.477 20.9282 74.1323L31.7632 80.3879C29.7697 87.1293 28.7422 94.2064 28.7982 101.416L15.487 104.982C14.221 105.322 13.0539 105.957 12.0821 106.837L7.71699 110.788C5.42011 112.867 4.47985 116.056 5.28168 119.049L8.77704 132.094C9.57888 135.086 11.9879 137.378 15.0166 138.03L20.7725 139.27C22.0538 139.545 23.3824 139.512 24.6484 139.173L37.674 135.683C41.1038 141.977 45.4034 147.632 50.374 152.533L43.954 163.653C43.2986 164.788 42.9229 166.063 42.8577 167.372L42.5649 173.252C42.4108 176.346 44.0013 179.267 46.6843 180.816L58.38 187.568C61.063 189.117 64.3872 189.034 66.9899 187.354L71.9361 184.16C73.0372 183.449 73.9533 182.486 74.6087 181.351L80.8642 170.516C87.6057 172.51 94.6827 173.537 101.892 173.481L104.848 184.513C105.187 185.779 105.823 186.946 106.702 187.918L110.653 192.283C112.732 194.58 115.922 195.52 118.914 194.718L131.959 191.223C134.952 190.421 137.244 188.012 137.896 184.983L139.135 179.228C139.411 177.946 139.378 176.618 139.039 175.352L136.159 164.605C142.86 160.954 148.837 156.316 153.95 150.933L164.259 156.884C165.394 157.54 166.669 157.915 167.978 157.981L173.858 158.273C176.952 158.427 179.873 156.837 181.422 154.154L188.174 142.458C189.723 139.775 189.64 136.451 187.96 133.848L184.766 128.902C184.055 127.801 183.092 126.885 181.957 126.23L171.364 120.114C173.218 113.384 174.114 106.337 173.938 99.1712L184.513 96.3376C185.779 95.9984 186.946 95.3627 187.918 94.4831L192.283 90.532C194.58 88.453 195.52 85.2635 194.718 82.271L191.223 69.2261C190.421 66.2336 188.012 63.9415 184.983 63.2895L179.228 62.0503C177.946 61.7745 176.618 61.8075 175.352 62.1468L164.491 65.0569C160.935 58.7856 156.506 53.1704 151.409 48.3289L157.361 38.0206C158.016 36.8855 158.392 35.6107 158.457 34.3016L158.75 28.4212C158.904 25.327 157.313 22.4067 154.63 20.8577L142.935 14.1052C140.252 12.5562 136.927 12.6389 134.325 14.3194L129.378 17.5132C128.277 18.2242 127.361 19.187 126.706 20.3221L120.59 30.9152C113.86 29.061 106.813 28.1649 99.6475 28.3416L96.2031 15.487C95.8639 14.221 95.2282 13.0539 94.3487 12.0821L90.3976 7.71699C88.3186 5.42011 85.129 4.47985 82.1365 5.28168L69.0917 8.77704ZM152.094 87.3121C159.6 115.322 142.977 144.113 114.967 151.618C86.9574 159.123 58.1666 142.501 50.6614 114.491C43.1562 86.481 59.7785 57.6903 87.7884 50.1851C115.798 42.6799 144.589 59.3022 152.094 87.3121Z" fill="#1E1E1E"/>
</svg>
