<svg width="100" height="100" viewBox="0 0 100 100" fill="none" xmlns="http://www.w3.org/2000/svg">
<path d="M75 40C83.2843 40 90 33.2843 90 25C90 16.7157 83.2843 10 75 10C66.7157 10 60 16.7157 60 25C60 25.6274 60.0385 26.2458 60.1133 26.853L35.413 39.2032C32.7152 36.6007 29.0445 35 25 35C16.7157 35 10 41.7157 10 50C10 58.2843 16.7157 65 25 65C29.0446 65 32.7153 63.3992 35.4131 60.7966L60.1134 73.1467C60.0385 73.754 60 74.3725 60 75C60 83.2843 66.7157 90 75 90C83.2843 90 90 83.2843 90 75C90 66.7157 83.2843 60 75 60C70.9555 60 67.2848 61.6007 64.587 64.2032L39.8867 51.853C39.9615 51.2459 40 50.6274 40 50C40 49.3725 39.9615 48.754 39.8866 48.1467L64.5869 35.7966C67.2847 38.3992 70.9554 40 75 40Z" fill="black"/>
</svg>
