<svg width="100" height="100" viewBox="0 0 100 100" fill="none" xmlns="http://www.w3.org/2000/svg">
<path d="M15.8579 74.1421C19.6086 77.8929 24.6957 80 30 80H45H55H70C75.3043 80 80.3914 77.8929 84.1421 74.1421C87.8929 70.3914 90 65.3043 90 60C90 54.6957 87.8929 49.6086 84.1421 45.8579C80.3914 42.1071 75.3043 40 70 40C70 34.6957 67.8929 29.6086 64.1421 25.8579C60.3914 22.1071 55.3043 20 50 20C44.6957 20 39.6086 22.1071 35.8579 25.8579C32.1071 29.6086 30 34.6957 30 40C24.6957 40 19.6086 42.1071 15.8579 45.8579C12.1071 49.6086 10 54.6957 10 60C10 65.3043 12.1071 70.3914 15.8579 74.1421Z" />
</svg>
