<svg width="100" height="100" viewBox="0 0 100 100" fill="none" xmlns="http://www.w3.org/2000/svg">
<path d="M85.699 36.0213C85.699 36.4554 85.6885 36.887 85.6677 37.3158C88.2746 39.001 90 41.9331 90 45.2682C90 50.494 85.7636 54.7305 80.5377 54.7305C79.9773 54.7305 79.4283 54.6817 78.8947 54.5883C81.0649 62.6456 79.7398 71.5753 74.5067 78.8922C67.0758 89.2823 54.0206 93.2657 42.457 89.6619C47.8849 87.7475 52.9093 84.0937 56.6301 78.8922C60.1955 73.907 62.0282 68.2478 62.2253 62.7193C57.1709 71.0761 47.9653 76.6664 37.4471 76.6664C24.6533 76.6664 13.8014 68.3954 10 56.9351C14.7221 60.2243 20.626 62.1789 27.0313 62.1789C30.9176 62.1789 34.6192 61.4595 37.9843 60.159C28.1073 59.308 19.0541 53.0661 15.0882 43.2446C10.3981 31.6287 14.305 18.6759 23.8138 11.4378C22.7125 16.6047 23.1193 22.2781 25.3129 27.7108C27.3021 32.6373 30.4862 36.6859 34.3286 39.6002C34.169 38.4302 34.0866 37.2355 34.0866 36.0213C34.0866 21.6501 45.6404 10 59.8929 10C74.1453 10 85.699 21.6501 85.699 36.0213ZM61.1824 50.4299C64.033 50.4299 66.3437 48.1192 66.3437 45.2686C66.3437 42.4183 64.033 40.1077 61.1824 40.1077C58.3317 40.1077 56.0211 42.4183 56.0211 45.2686C56.0211 48.1192 58.3317 50.4299 61.1824 50.4299ZM80.5377 50.4299C83.388 50.4299 85.699 48.1192 85.699 45.2686C85.699 42.4183 83.388 40.1077 80.5377 40.1077C77.6871 40.1077 75.3764 42.4183 75.3764 45.2686C75.3764 48.1192 77.6871 50.4299 80.5377 50.4299Z"/>
</svg>
