<svg width="100" height="100" viewBox="0 0 100 100" fill="none" xmlns="http://www.w3.org/2000/svg">
<path d="M59.5386 12.36L40.5232 31.3755V92.36L59.5386 73.3446V12.36Z"/>
<path d="M20.1153 20.4754C18.7558 19.1158 16.711 18.7091 14.9346 19.4449C13.1582 20.1807 12 21.9141 12 23.8369V71.3755C12 72.6363 12.5009 73.8455 13.3924 74.737L31.0154 92.36V31.3755L20.1153 20.4754Z"/>
<path d="M86.6694 29.9831L69.0463 12.36V73.3446L79.9464 84.2447C81.306 85.6043 83.3507 86.011 85.1271 85.2752C86.9035 84.5394 88.0618 82.806 88.0618 80.8832V33.3446C88.0618 32.0838 87.5609 30.8746 86.6694 29.9831Z"/>
</svg>
