<svg width="100" height="100" viewBox="0 0 100 100" fill="none" xmlns="http://www.w3.org/2000/svg">
<path d="M50 17.5C50 15.5109 50.7902 13.6032 52.1967 12.1967C53.6032 10.7902 55.5109 10 57.5 10C59.4891 10 61.3968 10.7902 62.8033 12.1967C64.2098 13.6032 65 15.5109 65 17.5V20C65 21.3261 65.5268 22.5979 66.4645 23.5355C67.4021 24.4732 68.6739 25 70 25H85C86.3261 25 87.5979 25.5268 88.5355 26.4645C89.4732 27.4021 90 28.6739 90 30V45C90 46.3261 89.4732 47.5979 88.5355 48.5355C87.5979 49.4732 86.3261 50 85 50H82.5C80.5109 50 78.6032 50.7902 77.1967 52.1967C75.7902 53.6032 75 55.5109 75 57.5C75 59.4891 75.7902 61.3968 77.1967 62.8033C78.6032 64.2098 80.5109 65 82.5 65H85C86.3261 65 87.5979 65.5268 88.5355 66.4645C89.4732 67.4021 90 68.6739 90 70V85C90 86.3261 89.4732 87.5979 88.5355 88.5355C87.5979 89.4732 86.3261 90 85 90H70C68.6739 90 67.4021 89.4732 66.4645 88.5355C65.5268 87.5979 65 86.3261 65 85V82.5C65 80.5109 64.2098 78.6032 62.8033 77.1967C61.3968 75.7902 59.4891 75 57.5 75C55.5109 75 53.6032 75.7902 52.1967 77.1967C50.7902 78.6032 50 80.5109 50 82.5V85C50 86.3261 49.4732 87.5979 48.5355 88.5355C47.5979 89.4732 46.3261 90 45 90H30C28.6739 90 27.4021 89.4732 26.4645 88.5355C25.5268 87.5979 25 86.3261 25 85V70C25 68.6739 24.4732 67.4021 23.5355 66.4645C22.5979 65.5268 21.3261 65 20 65H17.5C15.5109 65 13.6032 64.2098 12.1967 62.8033C10.7902 61.3968 10 59.4891 10 57.5C10 55.5109 10.7902 53.6032 12.1967 52.1967C13.6032 50.7902 15.5109 50 17.5 50H20C21.3261 50 22.5979 49.4732 23.5355 48.5355C24.4732 47.5979 25 46.3261 25 45V30C25 28.6739 25.5268 27.4021 26.4645 26.4645C27.4021 25.5268 28.6739 25 30 25H45C46.3261 25 47.5979 24.4732 48.5355 23.5355C49.4732 22.5979 50 21.3261 50 20V17.5Z"/>
</svg>
