<svg width="100" height="100" viewBox="0 0 100 100" fill="none" xmlns="http://www.w3.org/2000/svg">
<path d="M45.9526 10.0319C44.0456 10.1464 41.7857 10.3986 40.1745 10.6766C36.7116 11.2741 34.5202 12.1349 33.1256 13.4456C32 14.5034 31.4141 15.8063 31.1438 17.8523C31.1031 18.1604 31.0781 19.7766 31.0633 23.0551L31.0419 27.8109H40.072H49.1021V29.4251V31.0394H35.4005C23.6014 31.0394 21.6115 31.0496 21.0695 31.1131C18.5476 31.4085 16.2799 32.4546 14.5644 34.114C12.9119 35.7124 11.8522 37.6112 11.2356 40.0791C10.6591 42.386 10.234 44.8133 10.0611 46.7844C9.97958 47.713 9.97968 50.3271 10.0612 51.2546C10.2385 53.2724 10.5986 55.3691 11.1823 57.7839C11.9027 60.7634 12.9976 62.9329 14.581 64.5169C15.8853 65.8219 17.2745 66.5489 19.1948 66.9319C19.5655 67.0054 20.1203 67.0179 23.7949 67.0349L27.9735 67.0544L27.9745 61.7249C27.9755 56.0555 27.9788 55.9645 28.2206 54.8803C28.4886 53.6782 29.1433 52.1624 29.8509 51.1056C31.0529 49.3101 32.5959 47.9413 34.446 47.0289C35.4891 46.5145 36.2282 46.2674 37.4466 46.0257C37.9587 45.9241 38.1181 45.9218 46.9694 45.8903C56.7613 45.8555 56.0769 45.8757 57.1987 45.5891C60.2869 44.8002 62.8259 42.2519 63.6299 39.1345C63.9194 38.0134 63.9069 38.4998 63.9069 28.3572V18.9947L63.7939 18.4356C63.4534 16.7543 62.6949 15.3282 61.4529 14.0342C60.1629 12.6898 58.3382 11.6161 56.3689 11.0426C55.8747 10.8987 52.7766 10.2978 51.3835 10.0758C50.9289 10.0033 46.9623 9.97126 45.9526 10.0319ZM39.5697 17.2025C40.6329 17.5983 41.3641 18.3526 41.6922 19.392C41.961 20.2435 41.8919 21.0692 41.4823 21.8992C41.2936 22.2818 41.1747 22.4455 40.8476 22.773C40.5181 23.103 40.3599 23.2179 39.975 23.4063C39.1319 23.8192 38.3189 23.8868 37.4612 23.6155C36.556 23.3291 35.8499 22.7063 35.4324 21.8258C35.199 21.3338 35.1156 20.9601 35.1156 20.4077C35.1156 19.4392 35.4164 18.7154 36.1061 18.0247C36.5829 17.5473 37.014 17.2902 37.6062 17.1302C38.1512 16.9829 39.0709 17.0168 39.5697 17.2025ZM72.0429 38.2869C72.0244 43.0708 72.0129 43.7237 71.9364 44.2092C71.1339 49.3216 67.0254 53.3902 62.0329 54.0171C61.7594 54.0514 58.802 54.0695 53.3345 54.0703C48.4631 54.0709 44.7951 54.0911 44.4305 54.1195C40.024 54.4614 36.5524 57.8552 36.1007 62.2629C36.0308 62.9454 36.0293 80.2384 36.0992 80.8654C36.2194 81.9444 36.4431 82.6964 36.9414 83.6964C37.3714 84.5594 37.8004 85.1644 38.501 85.8954C39.3815 86.8139 40.2783 87.4794 41.4272 88.0669C42.6502 88.6924 43.6884 89.0194 45.4473 89.3344C46.0474 89.4414 46.8923 89.5974 47.3247 89.6804C48.9132 89.9849 49.1373 90.0024 51.3246 89.9994C53.7014 89.9964 55.2551 89.9034 57.5242 89.6294C64.4994 88.7859 67.5279 87.1739 68.5139 83.7794C68.8879 82.4929 68.9314 81.7364 68.9314 76.5069V72.1484H59.9049H50.8782V70.5604V68.9724L64.7034 68.9564C77.5549 68.9414 78.5689 68.9344 79.0969 68.8539C80.4824 68.6424 81.5824 68.3079 82.7039 67.7569C84.3079 66.9684 85.5459 65.9444 86.6124 64.5244C87.1374 63.8254 87.3944 63.3979 87.8239 62.5099C88.2599 61.6074 88.5144 60.8674 88.8209 59.6072C90.4004 53.1189 90.3939 48.6837 88.7959 42.1735C88.2219 39.8362 87.5209 38.1922 86.4699 36.7193C85.5324 35.4052 84.4664 34.4786 83.1414 33.826C82.1214 33.3236 81.2144 33.071 80.0414 32.9631C79.7014 32.9318 77.9759 32.9105 75.7674 32.9104L72.0634 32.9102L72.0429 38.2869ZM62.3104 76.3004C63.3954 76.5574 64.3789 77.4824 64.7344 78.5804C65.2964 80.3174 64.2939 82.2229 62.5089 82.8119C62.1689 82.9239 62.0264 82.9429 61.5169 82.9429C61.0074 82.9429 60.8644 82.9239 60.5249 82.8119C59.9739 82.6299 59.5448 82.3659 59.1369 81.9574C58.7276 81.5474 58.4637 81.1169 58.2856 80.5674C58.1227 80.0654 58.0998 79.2599 58.234 78.7599C58.4953 77.7874 59.1369 77.0064 60.0554 76.5434C60.7444 76.1959 61.5164 76.1129 62.3104 76.3004Z"/>
</svg>
