<svg width="100" height="100" viewBox="0 0 100 100" fill="none" xmlns="http://www.w3.org/2000/svg">
<path d="M10 22C10 15.3726 15.3726 10 22 10H78C84.6274 10 90 15.3726 90 22V28.4C90 35.0274 84.6274 40.4 78 40.4H22C15.3726 40.4 10 35.0274 10 28.4V22ZM80.4 25.2C80.4 22.549 78.251 20.4 75.6 20.4C72.949 20.4 70.8 22.549 70.8 25.2C70.8 27.851 72.949 30 75.6 30C78.251 30 80.4 27.851 80.4 25.2ZM10 72C10 65.3726 15.3726 60 22 60H78C84.6274 60 90 65.3726 90 72V78.4C90 85.0274 84.6274 90.4 78 90.4H22C15.3726 90.4 10 85.0274 10 78.4V72ZM80.4 75.2C80.4 72.549 78.251 70.4 75.6 70.4C72.949 70.4 70.8 72.549 70.8 75.2C70.8 77.851 72.949 80 75.6 80C78.251 80 80.4 77.851 80.4 75.2Z"/>
</svg>
