<svg width="100" height="100" viewBox="0 0 100 100" fill="none" xmlns="http://www.w3.org/2000/svg">
<path d="M15.7293 49.4971L26.509 53.9706C25.5671 56.4447 24.7852 58.9769 24.1681 61.5514C24.0736 61.9335 24.0791 62.3335 24.1842 62.7129C24.2893 63.0923 24.4903 63.4382 24.7679 63.7173L36.2724 75.2382C36.5515 75.5159 36.8974 75.717 37.2768 75.8221C37.6561 75.9273 38.0562 75.933 38.4383 75.8381C41.0119 75.2142 43.5438 74.4296 46.0191 73.4891L50.4926 84.2684C50.6035 84.5319 50.7773 84.7644 50.9987 84.945C51.2201 85.1255 51.4825 85.2495 51.7627 85.3055C52.043 85.361 52.3327 85.3478 52.6065 85.2655C52.8803 85.1838 53.1298 85.0358 53.3333 84.8353L59.3146 78.8539C60.4684 77.6974 61.3664 76.3118 61.9505 74.7862C62.5346 73.2606 62.7917 71.6298 62.7052 69.9985L62.4136 64.3338C74.9261 54.8286 86.514 38.7257 89.9794 12.2263C90.0166 11.9717 90.0034 11.7121 89.9395 11.4628C89.876 11.2134 89.7635 10.9792 89.6086 10.7737C89.4532 10.5683 89.2589 10.3958 89.0367 10.2661C88.8144 10.1365 88.5681 10.0524 88.3133 10.0187C88.1224 9.99376 87.9293 9.99376 87.7384 10.0187C61.2723 13.4676 45.1694 25.0137 35.6226 37.5511L29.9995 37.2928C28.3703 37.2065 26.7411 37.4628 25.2172 38.0454C23.6933 38.628 22.3085 39.5238 21.1525 40.675L15.1629 46.6731C14.9956 46.8353 14.8626 47.0295 14.7717 47.2442C14.6809 47.4588 14.6342 47.6896 14.6342 47.9226C14.6342 48.1557 14.6809 48.3864 14.7717 48.601C14.8626 48.8157 14.9956 49.0099 15.1629 49.1722C15.3303 49.3141 15.5223 49.4242 15.7293 49.4971ZM59.9894 29.7621C61.0013 28.7565 62.2883 28.0732 63.6881 27.7982C65.0879 27.5232 66.5375 27.6689 67.8546 28.217C69.1722 28.7649 70.2973 29.6907 71.0886 30.8774C71.8806 32.0642 72.3029 33.4588 72.3029 34.8853C72.3029 36.3119 71.8806 37.7065 71.0886 38.8932C70.2973 40.08 69.1722 41.0058 67.8546 41.5537C66.5375 42.1017 65.0879 42.2474 63.6881 41.9724C62.2883 41.6975 61.0013 41.0142 59.9894 40.0086C59.3129 39.3379 58.7759 38.5399 58.4094 37.6605C58.043 36.7812 57.8543 35.838 57.8543 34.8853C57.8543 33.9327 58.043 32.9895 58.4094 32.1101C58.7759 31.2308 59.3129 30.4328 59.9894 29.7621ZM10.0062 87.9174C10.6227 76.5712 16.1292 70.3236 19.2864 67.6409C19.4893 67.4849 19.7454 67.4147 19.9995 67.4461C20.2536 67.4769 20.4852 67.6072 20.6443 67.8078C20.8019 68.0175 20.8707 68.2809 20.8359 68.5409C20.528 70.2482 20.4774 71.9915 20.686 73.7137C20.858 75.1279 21.4987 76.4432 22.5059 77.4506C23.513 78.4574 24.8285 79.0985 26.2424 79.2705C27.9765 79.4928 29.734 79.4562 31.4573 79.1619C31.6538 79.1276 31.8561 79.1545 32.0365 79.2391C32.217 79.3242 32.3669 79.463 32.4654 79.6362C32.564 79.8093 32.6064 80.0093 32.5871 80.2076C32.5676 80.4064 32.4873 80.5938 32.357 80.7447C29.6746 83.8605 23.4267 89.367 12.0805 89.9915C11.5603 90.0212 11.0496 89.8429 10.6606 89.4961C10.2717 89.1499 10.0363 88.6625 10.0062 88.1425C9.99792 88.0676 9.99792 87.9922 10.0062 87.9174Z" fill="black"/>
</svg>
