<svg width="100" height="100" viewBox="0 0 100 100" fill="none" xmlns="http://www.w3.org/2000/svg">
<path d="M45.5555 32.3333C45.5555 39.6971 39.586 45.6666 32.2222 45.6666C24.8584 45.6666 18.8889 39.6971 18.8889 32.3333C18.8889 24.9695 24.8584 19 32.2222 19C39.586 19 45.5555 24.9695 45.5555 32.3333Z" fill="black"/>
<path d="M81.111 32.3333C81.111 39.6971 75.1415 45.6666 67.7777 45.6666C60.4139 45.6666 54.4444 39.6971 54.4444 32.3333C54.4444 24.9695 60.4139 19 67.7777 19C75.1415 19 81.111 24.9695 81.111 32.3333Z" fill="black"/>
<path d="M63.0183 81.2222C63.2259 79.7706 63.3334 78.2867 63.3334 76.7777C63.3334 69.5102 60.8415 62.8248 56.6655 57.5291C59.9344 55.6379 63.7297 54.5555 67.7778 54.5555C80.0508 54.5555 90 64.5047 90 76.7777V81.2222H63.0183Z" fill="black"/>
<path d="M32.2222 54.5555C44.4952 54.5555 54.4444 64.5047 54.4444 76.7777V81.2222H10V76.7777C10 64.5047 19.9492 54.5555 32.2222 54.5555Z" fill="black"/>
</svg>
