<svg width="100" height="100" viewBox="0 0 100 100" fill="none" xmlns="http://www.w3.org/2000/svg">
<path fill-rule="evenodd" clip-rule="evenodd" d="M50 10C40.3349 10 31.5849 11.6788 25.2513 14.3931C22.0844 15.7503 19.5216 17.3664 17.7505 19.161C15.9629 20.9724 15 22.9468 15 25V75C15 83.285 30.67 90 50 90C69.33 90 85 83.285 85 75V25C85 22.9464 84.0364 20.9719 82.2495 19.1611C80.4784 17.3663 77.9153 15.7502 74.7486 14.3931C68.4152 11.6788 59.6648 10 50 10ZM50.3068 20C41.5614 20 34.071 21.5365 29.1032 23.6655C27.1267 24.5125 25.8078 25.3428 25 26C25.8078 26.6572 27.1267 27.4875 29.1032 28.3345C34.071 30.4635 41.5614 32 50.3068 32C59.0519 32 66.5426 30.4635 71.5101 28.3345C73.4868 27.4875 74.8059 26.6571 75.6134 26C74.8059 25.3429 73.487 24.5126 71.5103 23.6655C66.5427 21.5366 59.0519 20 50.3068 20Z" fill="black"/>
</svg>
