<svg width="100" height="100" viewBox="0 0 100 100" fill="none" xmlns="http://www.w3.org/2000/svg">
<path d="M25 10C27.7614 10 30 12.2386 30 15V20H35C37.7614 20 40 22.2386 40 25C40 27.7614 37.7614 30 35 30H30V35C30 37.7614 27.7614 40 25 40C22.2386 40 20 37.7614 20 35V30H15C12.2386 30 10 27.7614 10 25C10 22.2386 12.2386 20 15 20H20V15C20 12.2386 22.2386 10 25 10ZM25 60C27.7614 60 30 62.2386 30 65V70H35C37.7614 70 40 72.2386 40 75C40 77.7614 37.7614 80 35 80H30V85C30 87.7614 27.7614 90 25 90C22.2386 90 20 87.7614 20 85V80H15C12.2386 80 10 77.7614 10 75C10 72.2386 12.2386 70 15 70H20V65C20 62.2386 22.2386 60 25 60Z"/>
<path d="M59.9997 10C62.2684 10 64.2527 11.5274 64.8333 13.7205L70.7294 35.9947L87.4984 45.6691C89.0461 46.562 89.9997 48.2131 89.9997 50C89.9997 51.7869 89.0461 53.438 87.4984 54.3309L70.7294 64.0054L64.8333 86.2795C64.2527 88.4726 62.2684 90 59.9997 90C57.7311 90 55.7467 88.4726 55.1662 86.2795L49.2701 64.0053L32.5014 54.3309C30.9536 53.438 30 51.7869 30 50C30 48.2131 30.9536 46.562 32.5014 45.6691L49.2701 35.9947L55.1662 13.7205C55.7467 11.5274 57.7311 10 59.9997 10Z"/>
</svg>
