<svg width="100" height="100" viewBox="0 0 100 100" fill="none" xmlns="http://www.w3.org/2000/svg">
<path d="M12.9289 17.9289C11.0536 19.8043 10 22.3479 10 25V75C10 77.652 11.0536 80.1955 12.9289 82.071C14.8043 83.9465 17.3479 85 20 85H80C82.652 85 85.1955 83.9465 87.071 82.071C88.9465 80.1955 90 77.652 90 75V25C90 22.3479 88.9465 19.8043 87.071 17.9289C85.1955 16.0536 82.652 15 80 15H20C17.3479 15 14.8043 16.0536 12.9289 17.9289ZM51.4644 61.4644C52.4021 60.5268 53.6739 60 55 60H70C71.326 60 72.598 60.5268 73.5355 61.4644C74.473 62.4021 75 63.6739 75 65C75 66.326 74.473 67.598 73.5355 68.5355C72.598 69.473 71.326 70 70 70H55C53.6739 70 52.4021 69.473 51.4644 68.5355C50.5268 67.598 50 66.326 50 65C50 63.6739 50.5268 62.4021 51.4644 61.4644ZM26.465 31.465C27.4026 30.5276 28.6742 30.001 30 30.001C31.3258 30.001 32.5974 30.5276 33.535 31.465L48.535 46.465C49.4724 47.4026 49.999 48.6742 49.999 50C49.999 51.3258 49.4724 52.5974 48.535 53.535L33.535 68.535C32.592 69.446 31.329 69.95 30.018 69.9385C28.707 69.927 27.4529 69.401 26.5259 68.474C25.5988 67.547 25.073 66.293 25.0616 64.982C25.0502 63.671 25.5542 62.408 26.465 61.465L37.93 50L26.465 38.535C25.5276 37.5974 25.001 36.3258 25.001 35C25.001 33.6742 25.5276 32.4026 26.465 31.465Z"/>
</svg>
