<svg width="100" height="100" viewBox="0 0 100 100" fill="none" xmlns="http://www.w3.org/2000/svg">
<path d="M21.4286 10C18.3975 10 15.4906 11.2041 13.3474 13.3474C11.2041 15.4906 10 18.3975 10 21.4286V32.8571C10 35.8882 11.2041 38.7951 13.3474 40.9384C15.4906 43.0816 18.3975 44.2857 21.4286 44.2857H32.8571C35.8882 44.2857 38.7951 43.0816 40.9384 40.9384C43.0816 38.7951 44.2857 35.8882 44.2857 32.8571V21.4286C44.2857 18.3975 43.0816 15.4906 40.9384 13.3474C38.7951 11.2041 35.8882 10 32.8571 10H21.4286ZM21.4286 55.7143C18.3975 55.7143 15.4906 56.9184 13.3474 59.0616C11.2041 61.2049 10 64.1118 10 67.1429V78.5714C10 81.6025 11.2041 84.5094 13.3474 86.6526C15.4906 88.7959 18.3975 90 21.4286 90H32.8571C35.8882 90 38.7951 88.7959 40.9384 86.6526C43.0816 84.5094 44.2857 81.6025 44.2857 78.5714V67.1429C44.2857 64.1118 43.0816 61.2049 40.9384 59.0616C38.7951 56.9184 35.8882 55.7143 32.8571 55.7143H21.4286ZM55.7143 21.4286C55.7143 18.3975 56.9184 15.4906 59.0616 13.3474C61.2049 11.2041 64.1118 10 67.1429 10H78.5714C81.6025 10 84.5094 11.2041 86.6526 13.3474C88.7959 15.4906 90 18.3975 90 21.4286V32.8571C90 35.8882 88.7959 38.7951 86.6526 40.9384C84.5094 43.0816 81.6025 44.2857 78.5714 44.2857H67.1429C64.1118 44.2857 61.2049 43.0816 59.0616 40.9384C56.9184 38.7951 55.7143 35.8882 55.7143 32.8571V21.4286ZM72.8571 55.7143C74.3727 55.7143 75.8261 56.3163 76.8978 57.388C77.9694 58.4596 78.5714 59.913 78.5714 61.4286V67.1429H84.2857C85.8012 67.1429 87.2547 67.7449 88.3263 68.8165C89.398 69.8882 90 71.3416 90 72.8571C90 74.3727 89.398 75.8261 88.3263 76.8978C87.2547 77.9694 85.8012 78.5714 84.2857 78.5714H78.5714V84.2857C78.5714 85.8012 77.9694 87.2547 76.8978 88.3263C75.8261 89.398 74.3727 90 72.8571 90C71.3416 90 69.8882 89.398 68.8165 88.3263C67.7449 87.2547 67.1429 85.8012 67.1429 84.2857V78.5714H61.4286C59.913 78.5714 58.4596 77.9694 57.388 76.8978C56.3163 75.8261 55.7143 74.3727 55.7143 72.8571C55.7143 71.3416 56.3163 69.8882 57.388 68.8165C58.4596 67.7449 59.913 67.1429 61.4286 67.1429H67.1429V61.4286C67.1429 59.913 67.7449 58.4596 68.8165 57.388C69.8882 56.3163 71.3416 55.7143 72.8571 55.7143V55.7143Z"/>
</svg>
