<svg width="100" height="100" viewBox="0 0 100 100" fill="none" xmlns="http://www.w3.org/2000/svg">
<path d="M10 15.7143C10 14.1988 10.602 12.7453 11.6737 11.6737C12.7453 10.602 14.1988 10 15.7143 10H84.2857C85.8011 10 87.2549 10.602 88.3263 11.6737C89.3977 12.7453 90 14.1988 90 15.7143V27.1429C90 28.6584 89.3977 30.1118 88.3263 31.1835C87.2549 32.2551 85.8011 32.8571 84.2857 32.8571H15.7143C14.1988 32.8571 12.7453 32.2551 11.6737 31.1835C10.602 30.1118 10 28.6584 10 27.1429V15.7143ZM10 50C10 48.4845 10.602 47.031 11.6737 45.9594C12.7453 44.8878 14.1988 44.2857 15.7143 44.2857H50C51.5155 44.2857 52.969 44.8878 54.0406 45.9594C55.1122 47.031 55.7143 48.4845 55.7143 50V84.2857C55.7143 85.8011 55.1122 87.2549 54.0406 88.3263C52.969 89.3977 51.5155 90 50 90H15.7143C14.1988 90 12.7453 89.3977 11.6737 88.3263C10.602 87.2549 10 85.8011 10 84.2857V50ZM72.8571 44.2857C71.3417 44.2857 69.888 44.8878 68.8166 45.9594C67.7451 47.031 67.1429 48.4845 67.1429 50V84.2857C67.1429 85.8011 67.7451 87.2549 68.8166 88.3263C69.888 89.3977 71.3417 90 72.8571 90H84.2857C85.8011 90 87.2549 89.3977 88.3263 88.3263C89.3977 87.2549 90 85.8011 90 84.2857V50C90 48.4845 89.3977 47.031 88.3263 45.9594C87.2549 44.8878 85.8011 44.2857 84.2857 44.2857H72.8571Z"/>
</svg>
