<svg width="100" height="100" viewBox="0 0 100 100" fill="none" xmlns="http://www.w3.org/2000/svg">
<path d="M13.3504 13.3471C15.4935 11.204 18.4002 10 21.4311 10H32.8589C35.8898 10 38.7965 11.204 40.9396 13.3471C43.0827 15.4903 44.2867 18.397 44.2867 21.4278V32.8557C44.2867 35.8865 43.0827 38.7932 40.9396 40.9364C38.7965 43.0795 35.8898 44.2835 32.8589 44.2835H21.4311C18.4002 44.2835 15.4935 43.0795 13.3504 40.9364C11.2073 38.7932 10.0033 35.8865 10.0033 32.8557V21.4278C10.0033 18.397 11.2073 15.4903 13.3504 13.3471Z" fill="black"/>
<path d="M27.1475 55.7057C29.802 55.7057 32.3489 56.7552 34.2327 58.6255L41.3751 65.7679C43.2454 67.6517 44.2949 70.1986 44.2949 72.8531C44.2949 75.5077 43.2454 78.0546 41.3751 79.9384L34.2327 87.0808C32.3489 88.951 29.802 90.0006 27.1475 90.0006C24.4929 90.0006 21.946 88.951 20.0622 87.0808L12.9198 79.9384C11.0496 78.0546 10 75.5077 10 72.8531C10 70.1986 11.0496 67.6517 12.9198 65.7679L20.0622 58.6255C21.946 56.7552 24.4929 55.7057 27.1475 55.7057Z" fill="black"/>
<path d="M55.7165 27.1417C55.7165 22.5955 57.5225 18.2354 60.7372 15.0207C63.9519 11.806 68.312 10 72.8583 10C77.4045 10 81.7646 11.806 84.9793 15.0207C88.194 18.2354 90 22.5955 90 27.1417C90 31.688 88.194 36.0481 84.9793 39.2628C81.7646 42.4775 77.4045 44.2835 72.8583 44.2835C68.312 44.2835 63.9519 42.4775 60.7372 39.2628C57.5225 36.0481 55.7165 31.688 55.7165 27.1417Z" fill="black"/>
<path d="M59.0637 59.0582C56.9205 61.2014 55.7165 64.1081 55.7165 67.1389V78.5668C55.7165 81.5976 56.9205 84.5043 59.0637 86.6475C61.2068 88.7906 64.1135 89.9946 67.1444 89.9946H78.5722C81.603 89.9946 84.5097 88.7906 86.6529 86.6475C88.796 84.5043 90 81.5976 90 78.5668V67.1389C90 64.1081 88.796 61.2014 86.6529 59.0582C84.5097 56.9151 81.603 55.7111 78.5722 55.7111H67.1444C64.1135 55.7111 61.2068 56.9151 59.0637 59.0582Z" fill="black"/>
</svg>
