<svg width="100" height="100" viewBox="0 0 100 100" fill="none" xmlns="http://www.w3.org/2000/svg">
<path d="M47.3511 10.5852C48.0225 10.2017 48.7824 10 49.5556 10C50.3288 10 51.0886 10.2017 51.76 10.5852L59.5378 15.0294C60.059 15.3111 60.5187 15.6942 60.8897 16.1561C61.2608 16.618 61.5357 17.1495 61.6984 17.7192C61.861 18.2889 61.9081 18.8854 61.8369 19.4735C61.7656 20.0617 61.5775 20.6297 61.2835 21.1441C60.9896 21.6585 60.5957 22.109 60.1251 22.469C59.6545 22.829 59.1167 23.0912 58.5433 23.2403C57.9698 23.3895 57.3724 23.4224 56.786 23.3373C56.1997 23.2521 55.6362 23.0506 55.1289 22.7446L49.5556 19.5625L43.9822 22.7446C43.4749 23.0506 42.9115 23.2521 42.3251 23.3373C41.7388 23.4224 41.1413 23.3895 40.5679 23.2403C39.9945 23.0912 39.4566 22.829 38.986 22.469C38.5154 22.109 38.1216 21.6585 37.8276 21.1441C37.5337 20.6297 37.3455 20.0617 37.2743 19.4735C37.203 18.8854 37.2501 18.2889 37.4128 17.7192C37.5754 17.1495 37.8504 16.618 38.2214 16.1561C38.5924 15.6942 39.0521 15.3111 39.5734 15.0294L47.3511 10.5852V10.5852ZM30.08 25.5711C30.6643 26.5943 30.8184 27.8076 30.5084 28.9443C30.1983 30.0811 29.4496 31.0482 28.4267 31.633L27.4045 32.2197L28.4267 32.8063C28.9479 33.088 29.4076 33.4711 29.7786 33.933C30.1497 34.3949 30.4246 34.9263 30.5873 35.496C30.7499 36.0658 30.797 36.6622 30.7258 37.2504C30.6545 37.8386 30.4664 38.4066 30.1724 38.921C29.8785 39.4354 29.4846 39.8859 29.014 40.2458C28.5434 40.6058 28.0056 40.8681 27.4322 41.0172C26.8587 41.1663 26.2613 41.1993 25.6749 41.1141C25.0885 41.029 24.5251 40.8275 24.0178 40.5215L22.8889 39.877V41.1081C22.8889 42.2868 22.4207 43.4172 21.5872 44.2506C20.7537 45.0841 19.6232 45.5523 18.4445 45.5523C17.2657 45.5523 16.1353 45.0841 15.3018 44.2506C14.4683 43.4172 14 42.2868 14 41.1081V32.2197C13.9975 31.4213 14.211 30.6371 14.6179 29.9502C15.0247 29.2633 15.6098 28.6992 16.3111 28.3176L24.0178 23.9179C25.041 23.3336 26.2544 23.1795 27.3912 23.4895C28.528 23.7995 29.4951 24.5483 30.08 25.5711V25.5711ZM69.0311 25.5711C69.616 24.5483 70.5832 23.7995 71.72 23.4895C72.8568 23.1795 74.0701 23.3336 75.0934 23.9179L82.7956 28.3176C83.4958 28.7008 84.0802 29.2652 84.4876 29.9516C84.895 30.6381 85.1103 31.4214 85.1111 32.2197V41.1081C85.1111 42.2868 84.6429 43.4172 83.8094 44.2506C82.9759 45.0841 81.8454 45.5523 80.6667 45.5523C79.4879 45.5523 78.3575 45.0841 77.524 44.2506C76.6905 43.4172 76.2222 42.2868 76.2222 41.1081V39.877L75.0934 40.5215C74.586 40.8275 74.0226 41.029 73.4362 41.1141C72.8499 41.1993 72.2524 41.1663 71.679 41.0172C71.1056 40.8681 70.5677 40.6058 70.0971 40.2458C69.6266 39.8859 69.2327 39.4354 68.9387 38.921C68.6448 38.4066 68.4566 37.8386 68.3854 37.2504C68.3141 36.6622 68.3612 36.0658 68.5239 35.496C68.6865 34.9263 68.9615 34.3949 69.3325 33.933C69.7036 33.4711 70.1632 33.088 70.6845 32.8063L71.7067 32.2197L70.6845 31.633C69.6616 31.0482 68.9128 30.0811 68.6028 28.9443C68.2927 27.8076 68.4468 26.5943 69.0311 25.5711V25.5711ZM37.92 43.348C38.5049 42.3251 39.4721 41.5764 40.6088 41.2664C41.7456 40.9564 42.959 41.1104 43.9822 41.6947L49.5556 44.8768L55.1289 41.6947C55.6362 41.3887 56.1997 41.1872 56.786 41.102C57.3724 41.0169 57.9698 41.0499 58.5433 41.199C59.1167 41.3481 59.6545 41.6104 60.1251 41.9703C60.5957 42.3303 60.9896 42.7808 61.2835 43.2952C61.5775 43.8096 61.7656 44.3776 61.8369 44.9658C61.9081 45.5539 61.861 46.1504 61.6984 46.7201C61.5357 47.2898 61.2608 47.8213 60.8897 48.2832C60.5187 48.7451 60.059 49.1282 59.5378 49.4099L54 52.5742V58.885C54 60.0636 53.5318 61.194 52.6983 62.0275C51.8648 62.861 50.7343 63.3292 49.5556 63.3292C48.3768 63.3292 47.2464 62.861 46.4129 62.0275C45.5794 61.194 45.1111 60.0636 45.1111 58.885V52.5742L39.5734 49.4099C38.5505 48.825 37.8017 47.8579 37.4917 46.7212C37.1816 45.5845 37.3357 44.3711 37.92 43.348V43.348ZM18.4445 54.4407C19.6232 54.4407 20.7537 54.909 21.5872 55.7424C22.4207 56.5759 22.8889 57.7063 22.8889 58.885V65.1958L28.4267 68.36C28.9479 68.6417 29.4076 69.0248 29.7786 69.4867C30.1497 69.9486 30.4246 70.4801 30.5873 71.0498C30.7499 71.6195 30.797 72.216 30.7258 72.8042C30.6545 73.3923 30.4664 73.9603 30.1724 74.4747C29.8785 74.9892 29.4846 75.4396 29.014 75.7996C28.5434 76.1596 28.0056 76.4218 27.4322 76.571C26.8587 76.7201 26.2613 76.753 25.6749 76.6679C25.0885 76.5827 24.5251 76.3812 24.0178 76.0752L16.24 71.631C15.5598 71.2424 14.9943 70.681 14.601 70.0036C14.2076 69.3261 14.0003 68.5568 14 67.7734V58.885C14 57.7063 14.4683 56.5759 15.3018 55.7424C16.1353 54.909 17.2657 54.4407 18.4445 54.4407V54.4407ZM80.6667 54.4407C81.8454 54.4407 82.9759 54.909 83.8094 55.7424C84.6429 56.5759 85.1111 57.7063 85.1111 58.885V67.7734C85.1109 68.5568 84.9036 69.3261 84.5102 70.0036C84.1168 70.681 83.5514 71.2424 82.8711 71.631L75.0934 76.0752C74.586 76.3812 74.0226 76.5827 73.4362 76.6679C72.8499 76.753 72.2524 76.7201 71.679 76.571C71.1056 76.4218 70.5677 76.1596 70.0971 75.7996C69.6266 75.4396 69.2327 74.9892 68.9387 74.4747C68.6448 73.9603 68.4566 73.3923 68.3854 72.8042C68.3141 72.216 68.3612 71.6195 68.5239 71.0498C68.6865 70.4801 68.9615 69.9486 69.3325 69.4867C69.7036 69.0248 70.1632 68.6417 70.6845 68.36L76.2222 65.1958V58.885C76.2222 57.7063 76.6905 56.5759 77.524 55.7424C78.3575 54.909 79.4879 54.4407 80.6667 54.4407ZM37.92 78.9017C38.5049 77.8789 39.4721 77.1301 40.6088 76.8201C41.7456 76.5101 42.959 76.6642 43.9822 77.2485L45.1111 77.8929V76.6618C45.1111 75.4832 45.5794 74.3527 46.4129 73.5193C47.2464 72.6858 48.3768 72.2176 49.5556 72.2176C50.7343 72.2176 51.8648 72.6858 52.6983 73.5193C53.5318 74.3527 54 75.4832 54 76.6618V77.8929L55.1289 77.2485C55.6362 76.9424 56.1997 76.7409 56.786 76.6558C57.3724 76.5706 57.9698 76.6036 58.5433 76.7527C59.1167 76.9018 59.6545 77.1641 60.1251 77.5241C60.5957 77.8841 60.9896 78.3345 61.2835 78.8489C61.5775 79.3633 61.7656 79.9313 61.8369 80.5195C61.9081 81.1077 61.861 81.7042 61.6984 82.2739C61.5357 82.8436 61.2608 83.375 60.8897 83.8369C60.5187 84.2989 60.059 84.6819 59.5378 84.9636L51.8267 89.3723C51.1404 89.7831 50.3555 90 49.5556 90C48.7557 90 47.9708 89.7831 47.2845 89.3723L39.5734 84.9636C38.5505 84.3788 37.8017 83.4117 37.4917 82.2749C37.1816 81.1382 37.3357 79.9249 37.92 78.9017V78.9017Z"/>
</svg>
